#N canvas 192 216 1056 338 10;
#X declare -lib mrpeach;
#X obj 181 101 unpackOSC;
#X obj 34 37 import mrpeach;
#N canvas 464 369 450 300 sendOSC 0;
#X obj 40 117 packOSC;
#X msg 84 99 disconnect;
#X obj 37 146 udpsend;
#X msg 44 12 /print absd;
#X msg 68 73 connect localhost 9001;
#X connect 0 0 2 0;
#X connect 1 0 2 0;
#X connect 3 0 0 0;
#X connect 4 0 2 0;
#X restore 33 59 pd sendOSC;
#N canvas 403 213 1053 364 screen1 0;
#X obj 105 59 inlet;
#X floatatom 56 229 5 0 0 0 - - -;
#X obj 530 48 OSCroute /1;
#X obj 535 98 OSCroute /push1 /push2 /push3 /push4 /push5 /push6 /push7
/push8 /push9 /push10 /push11 /push12;
#X obj 269 229 tgl 15 0 empty empty empty 17 7 0 10 -262144 -1 -1 1
1;
#X floatatom 148 213 5 0 0 0 - - -;
#X obj 142 136 OSCroute /1;
#X obj 55 186 OSCroute /fader1 /fader2;
#X obj 266 192 OSCroute /toggle1 /toggle2;
#X obj 84 290 s 1fad1;
#X msg 522 142 1;
#X msg 559 144 3;
#X msg 588 144 5;
#X msg 618 143 7;
#X msg 647 141 9;
#X msg 678 141 11;
#X msg 698 145 13;
#X msg 734 145 15;
#X msg 765 142 17;
#X msg 791 144 19;
#X msg 823 146 21;
#X msg 862 152 23;
#X obj 630 250 +;
#X floatatom 555 304 5 0 0 0 - - -;
#X obj 641 291 s demux1;
#X connect 0 0 2 0;
#X connect 0 0 6 0;
#X connect 2 0 3 0;
#X connect 3 0 10 0;
#X connect 3 1 11 0;
#X connect 3 2 12 0;
#X connect 3 3 13 0;
#X connect 3 4 14 0;
#X connect 3 5 15 0;
#X connect 3 6 16 0;
#X connect 3 7 17 0;
#X connect 3 8 18 0;
#X connect 3 9 19 0;
#X connect 3 10 20 0;
#X connect 3 11 21 0;
#X connect 4 0 22 1;
#X connect 6 0 7 0;
#X connect 6 0 8 0;
#X connect 7 0 1 0;
#X connect 7 0 9 0;
#X connect 7 1 5 0;
#X connect 8 0 4 0;
#X connect 10 0 22 0;
#X connect 11 0 22 0;
#X connect 12 0 22 0;
#X connect 13 0 22 0;
#X connect 14 0 22 0;
#X connect 15 0 22 0;
#X connect 16 0 22 0;
#X connect 17 0 22 0;
#X connect 18 0 22 0;
#X connect 19 0 22 0;
#X connect 20 0 22 0;
#X connect 21 0 22 0;
#X connect 22 0 23 0;
#X connect 22 0 24 0;
#X restore 112 154 pd screen1;
#N canvas 0 40 973 885 screen2 0;
#X obj 83 57 inlet;
#X text 26 269 ROW;
#X text 257 170 COLUMN;
#X obj 103 185 OSCroute /1 /2 /3 /4 /5 /6 /7/ /8 /9 /10 /11 /12 /13
/14 /15 /16;
#X obj 103 270 OSCroute /1 /2 /3 /4 /5 /6;
#X obj 127 345 OSCroute /1 /2 /3 /4 /5 /6;
#X obj 151 428 OSCroute /1 /2 /3 /4 /5 /6;
#X obj 176 495 OSCroute /1 /2 /3 /4 /5 /6;
#X obj 198 578 OSCroute /1 /2 /3 /4 /5 /6;
#X obj 226 675 OSCroute /1 /2 /3 /4 /5 /6;
#X obj 249 758 OSCroute /1 /2 /3 /4 /5 /6;
#X obj 274 825 OSCroute /1 /2 /3 /4 /5 /6;
#X obj 302 268 OSCroute /1 /2 /3 /4 /5 /6;
#X obj 326 343 OSCroute /1 /2 /3 /4 /5 /6;
#X obj 350 426 OSCroute /1 /2 /3 /4 /5 /6;
#X obj 375 493 OSCroute /1 /2 /3 /4 /5 /6;
#X obj 397 576 OSCroute /1 /2 /3 /4 /5 /6;
#X obj 425 673 OSCroute /1 /2 /3 /4 /5 /6;
#X obj 448 756 OSCroute /1 /2 /3 /4 /5 /6;
#X obj 473 823 OSCroute /1 /2 /3 /4 /5 /6;
#X obj 213 60 OSCroute /2/multifader;
#X obj 213 85 OSCroute /1 /2 /3 /4 /5 /6 /7/ /8 /9 /10 /11 /12 /13
/14 /15 /16;
#X obj 103 149 OSCroute /2/multitoggle;
#X obj 692 358 packOSC;
#X obj 726 447 udpsend;
#X msg 768 418 disconnect;
#X msg 724 394 connect 10.0.0.14 8001;
#X obj 701 92 metro 200;
#X obj 702 154 cup;
#X obj 743 123 select 16;
#X obj 749 151 del 0;
#X msg 704 124 0;
#X obj 701 188 demux 1 2 3 4 5 6 7 8 9 10 11 12 13 14 15 16;
#X obj 707 54 tgl 15 0 empty empty empty 17 7 0 10 -262144 -1 -1 0
1;
#X floatatom 650 175 5 0 0 0 - - -;
#X obj 957 148 t f;
#X floatatom 945 122 5 0 0 0 - - -;
#X msg 701 249 /2/led1 0;
#X msg 718 279 /2/led2 0;
#X msg 736 309 /2/led3 0;
#X msg 753 339 /2/led4 0;
#X connect 0 0 20 0;
#X connect 0 0 22 0;
#X connect 3 0 4 0;
#X connect 3 1 5 0;
#X connect 3 2 6 0;
#X connect 3 3 7 0;
#X connect 3 4 8 0;
#X connect 3 5 9 0;
#X connect 3 6 10 0;
#X connect 3 7 11 0;
#X connect 3 8 12 0;
#X connect 3 9 13 0;
#X connect 3 10 14 0;
#X connect 3 11 15 0;
#X connect 3 12 16 0;
#X connect 3 13 17 0;
#X connect 3 14 18 0;
#X connect 3 15 19 0;
#X connect 20 0 21 0;
#X connect 22 0 3 0;
#X connect 23 0 24 0;
#X connect 25 0 24 0;
#X connect 26 0 24 0;
#X connect 27 0 28 0;
#X connect 27 0 36 0;
#X connect 28 0 29 0;
#X connect 28 0 32 0;
#X connect 28 0 34 0;
#X connect 29 0 30 0;
#X connect 30 0 31 0;
#X connect 31 0 28 0;
#X connect 32 0 37 0;
#X connect 32 1 38 0;
#X connect 32 2 39 0;
#X connect 32 3 40 0;
#X connect 33 0 27 0;
#X connect 35 0 32 1;
#X connect 36 0 35 0;
#X connect 37 0 23 0;
#X connect 38 0 23 0;
#X connect 39 0 23 0;
#X connect 40 0 23 0;
#X restore 181 154 pd screen2;
#N canvas 428 161 1065 409 screen3 0;
#X obj 159 54 inlet;
#X obj 81 146 OSCroute /rotary1 /rotary2 /rotary3 /rotary4 /rotary5
/rotary6;
#X floatatom 80 205 5 0 0 0 - - -;
#X floatatom 131 210 5 0 0 0 - - -;
#X floatatom 186 204 5 0 0 0 - - -;
#X floatatom 250 205 5 0 0 0 - - -;
#X obj 443 126 OSCroute /toggle1 /toggle2 /toggle3 /toggle4 /toggle5
;
#X obj 630 152 bng 15 250 50 0 empty empty empty 17 7 0 10 -262144
-1 -1;
#X obj 160 86 OSCroute /3;
#X obj 566 155 bng 15 250 50 0 empty empty empty 17 7 0 10 -262144
-1 -1;
#X obj 500 152 bng 15 250 50 0 empty empty empty 17 7 0 10 -262144
-1 -1;
#X obj 450 152 bng 15 250 50 0 empty empty empty 17 7 0 10 -262144
-1 -1;
#X floatatom 290 207 5 0 0 0 - - -;
#X floatatom 354 207 5 0 0 0 - - -;
#X obj 87 283 s rotary1;
#X obj 178 293 s rotary2;
#X obj 290 289 s rotary3;
#X connect 0 0 8 0;
#X connect 1 0 2 0;
#X connect 1 1 3 0;
#X connect 1 2 4 0;
#X connect 1 3 5 0;
#X connect 1 4 12 0;
#X connect 1 5 13 0;
#X connect 2 0 14 0;
#X connect 3 0 15 0;
#X connect 4 0 16 0;
#X connect 6 0 11 0;
#X connect 6 1 10 0;
#X connect 6 2 9 0;
#X connect 6 3 7 0;
#X connect 8 0 1 0;
#X connect 8 0 6 0;
#X restore 251 156 pd screen3;
#N canvas 269 375 917 310 screen4 0;
#X obj 140 26 inlet;
#X obj 305 39 OSCroute /toggle1 /toggle2 /toggle3 /toggle4 /toggle5
;
#X obj 130 169 unpack f f;
#X floatatom 130 197 5 0 0 0 - - -;
#X floatatom 187 198 5 0 0 0 - - -;
#X obj 130 138 OSCroute /xy;
#X obj 137 61 OSCroute /4;
#X obj 187 231 s xcoord;
#X obj 130 229 s ycoord;
#X obj 305 81 s 4tog1;
#X obj 368 81 s 4tog2;
#X obj 431 82 s 4tog3;
#X obj 495 81 s 4tog4;
#X obj 561 81 s 4tog5;
#X connect 0 0 6 0;
#X connect 1 0 9 0;
#X connect 1 1 10 0;
#X connect 1 2 11 0;
#X connect 1 3 12 0;
#X connect 1 4 13 0;
#X connect 2 0 3 0;
#X connect 2 1 4 0;
#X connect 3 0 8 0;
#X connect 4 0 7 0;
#X connect 5 0 2 0;
#X connect 6 0 1 0;
#X connect 6 0 5 0;
#X restore 320 158 pd screen4;
#X obj 181 77 udpreceive 8000;
#X msg 182 45 disconnect;
#X obj 389 126 OSCroute /accxyz;
#X obj 389 160 unpack f f f;
#X obj 382 187 s accx;
#X obj 423 208 s accy;
#X obj 458 187 s accz;
#X obj 636 81 unpackOSC;
#X obj 861 104 OSCroute /accxyz;
#X obj 861 138 unpack f f f;
#X obj 636 57 udpreceive 9000;
#N canvas 412 344 1053 561 2screen1 1;
#X obj 105 59 inlet;
#X floatatom 56 229 5 0 0 0 - - -;
#X obj 579 187 OSCroute /1;
#X obj 584 237 OSCroute /push1 /push2 /push3 /push4 /push5 /push6 /push7
/push8 /push9 /push10 /push11 /push12;
#X obj 268 229 tgl 15 0 empty empty empty 17 7 0 10 -262144 -1 -1 1
1;
#X floatatom 148 213 5 0 0 0 - - -;
#X obj 582 282 bng 15 250 50 0 empty empty empty 17 7 0 10 -262144
-1 -1;
#X obj 606 283 bng 15 250 50 0 empty empty empty 17 7 0 10 -262144
-1 -1;
#X obj 142 136 OSCroute /1;
#X obj 55 186 OSCroute /fader1 /fader2;
#X obj 266 192 OSCroute /toggle1 /toggle2;
#X obj 84 290 s 1fad1;
#X obj 632 282 bng 15 250 50 0 empty empty empty 17 7 0 10 -262144
-1 -1;
#X obj 656 283 bng 15 250 50 0 empty empty empty 17 7 0 10 -262144
-1 -1;
#X obj 692 282 bng 15 250 50 0 empty empty empty 17 7 0 10 -262144
-1 -1;
#X obj 716 283 bng 15 250 50 0 empty empty empty 17 7 0 10 -262144
-1 -1;
#X obj 742 282 bng 15 250 50 0 empty empty empty 17 7 0 10 -262144
-1 -1;
#X obj 766 283 bng 15 250 50 0 empty empty empty 17 7 0 10 -262144
-1 -1;
#X obj 812 282 bng 15 250 50 0 empty empty empty 17 7 0 10 -262144
-1 -1;
#X obj 836 283 bng 15 250 50 0 empty empty empty 17 7 0 10 -262144
-1 -1;
#X obj 862 282 bng 15 250 50 0 empty empty empty 17 7 0 10 -262144
-1 -1;
#X obj 886 283 bng 15 250 50 0 empty empty empty 17 7 0 10 -262144
-1 -1;
#X obj 739 317 s 2push1;
#X obj 753 343 s 2push2;
#X obj 802 364 s 2push3;
#X obj 647 324 s 2push4;
#X obj 650 350 s 2push5;
#X obj 699 371 s 2push6;
#X obj 265 265 s 2tog1;
#X obj 350 261 s 2tog2;
#X connect 0 0 2 0;
#X connect 0 0 8 0;
#X connect 2 0 3 0;
#X connect 3 0 6 0;
#X connect 3 1 7 0;
#X connect 3 2 12 0;
#X connect 3 3 13 0;
#X connect 3 4 14 0;
#X connect 3 5 15 0;
#X connect 3 6 16 0;
#X connect 3 7 17 0;
#X connect 3 8 18 0;
#X connect 3 9 19 0;
#X connect 3 10 20 0;
#X connect 3 11 21 0;
#X connect 4 0 28 0;
#X connect 8 0 9 0;
#X connect 8 0 10 0;
#X connect 9 0 1 0;
#X connect 9 0 11 0;
#X connect 9 1 5 0;
#X connect 10 0 4 0;
#X connect 10 1 29 0;
#X connect 13 0 25 0;
#X connect 14 0 26 0;
#X connect 15 0 27 0;
#X connect 16 0 22 0;
#X connect 17 0 23 0;
#X connect 18 0 24 0;
#X restore 560 135 pd 2screen1;
#N canvas 0 40 973 885 2screen2 0;
#X obj 83 57 inlet;
#X text 26 269 ROW;
#X text 257 170 COLUMN;
#X obj 103 185 OSCroute /1 /2 /3 /4 /5 /6 /7/ /8 /9 /10 /11 /12 /13
/14 /15 /16;
#X obj 103 270 OSCroute /1 /2 /3 /4 /5 /6;
#X obj 127 345 OSCroute /1 /2 /3 /4 /5 /6;
#X obj 151 428 OSCroute /1 /2 /3 /4 /5 /6;
#X obj 176 495 OSCroute /1 /2 /3 /4 /5 /6;
#X obj 198 578 OSCroute /1 /2 /3 /4 /5 /6;
#X obj 226 675 OSCroute /1 /2 /3 /4 /5 /6;
#X obj 249 758 OSCroute /1 /2 /3 /4 /5 /6;
#X obj 274 825 OSCroute /1 /2 /3 /4 /5 /6;
#X obj 302 268 OSCroute /1 /2 /3 /4 /5 /6;
#X obj 326 343 OSCroute /1 /2 /3 /4 /5 /6;
#X obj 350 426 OSCroute /1 /2 /3 /4 /5 /6;
#X obj 375 493 OSCroute /1 /2 /3 /4 /5 /6;
#X obj 397 576 OSCroute /1 /2 /3 /4 /5 /6;
#X obj 425 673 OSCroute /1 /2 /3 /4 /5 /6;
#X obj 448 756 OSCroute /1 /2 /3 /4 /5 /6;
#X obj 473 823 OSCroute /1 /2 /3 /4 /5 /6;
#X obj 213 60 OSCroute /2/multifader;
#X obj 213 85 OSCroute /1 /2 /3 /4 /5 /6 /7/ /8 /9 /10 /11 /12 /13
/14 /15 /16;
#X obj 103 149 OSCroute /2/multitoggle;
#X obj 692 358 packOSC;
#X obj 726 447 udpsend;
#X msg 768 418 disconnect;
#X msg 724 394 connect 10.0.0.14 8001;
#X obj 701 92 metro 200;
#X obj 702 154 cup;
#X obj 743 123 select 16;
#X obj 749 151 del 0;
#X msg 704 124 0;
#X obj 701 188 demux 1 2 3 4 5 6 7 8 9 10 11 12 13 14 15 16;
#X obj 707 54 tgl 15 0 empty empty empty 17 7 0 10 -262144 -1 -1 0
1;
#X floatatom 650 175 5 0 0 0 - - -;
#X obj 957 148 t f;
#X floatatom 945 122 5 0 0 0 - - -;
#X msg 701 249 /2/led1 0;
#X msg 718 279 /2/led2 0;
#X msg 736 309 /2/led3 0;
#X msg 753 339 /2/led4 0;
#X connect 0 0 20 0;
#X connect 0 0 22 0;
#X connect 3 0 4 0;
#X connect 3 1 5 0;
#X connect 3 2 6 0;
#X connect 3 3 7 0;
#X connect 3 4 8 0;
#X connect 3 5 9 0;
#X connect 3 6 10 0;
#X connect 3 7 11 0;
#X connect 3 8 12 0;
#X connect 3 9 13 0;
#X connect 3 10 14 0;
#X connect 3 11 15 0;
#X connect 3 12 16 0;
#X connect 3 13 17 0;
#X connect 3 14 18 0;
#X connect 3 15 19 0;
#X connect 20 0 21 0;
#X connect 22 0 3 0;
#X connect 23 0 24 0;
#X connect 25 0 24 0;
#X connect 26 0 24 0;
#X connect 27 0 28 0;
#X connect 27 0 36 0;
#X connect 28 0 29 0;
#X connect 28 0 32 0;
#X connect 28 0 34 0;
#X connect 29 0 30 0;
#X connect 30 0 31 0;
#X connect 31 0 28 0;
#X connect 32 0 37 0;
#X connect 32 1 38 0;
#X connect 32 2 39 0;
#X connect 32 3 40 0;
#X connect 33 0 27 0;
#X connect 35 0 32 1;
#X connect 36 0 35 0;
#X connect 37 0 23 0;
#X connect 38 0 23 0;
#X connect 39 0 23 0;
#X connect 40 0 23 0;
#X restore 635 136 pd 2screen2;
#N canvas 428 161 1065 409 2screen3 0;
#X obj 159 54 inlet;
#X obj 81 146 OSCroute /rotary1 /rotary2 /rotary3 /rotary4 /rotary5
/rotary6;
#X floatatom 80 205 5 0 0 0 - - -;
#X floatatom 131 210 5 0 0 0 - - -;
#X floatatom 186 204 5 0 0 0 - - -;
#X floatatom 250 205 5 0 0 0 - - -;
#X obj 443 126 OSCroute /toggle1 /toggle2 /toggle3 /toggle4 /toggle5
;
#X obj 630 152 bng 15 250 50 0 empty empty empty 17 7 0 10 -262144
-1 -1;
#X obj 160 86 OSCroute /3;
#X obj 566 155 bng 15 250 50 0 empty empty empty 17 7 0 10 -262144
-1 -1;
#X obj 500 152 bng 15 250 50 0 empty empty empty 17 7 0 10 -262144
-1 -1;
#X obj 450 152 bng 15 250 50 0 empty empty empty 17 7 0 10 -262144
-1 -1;
#X floatatom 290 207 5 0 0 0 - - -;
#X floatatom 354 207 5 0 0 0 - - -;
#X obj 87 283 s rotary1;
#X obj 178 293 s rotary2;
#X obj 290 289 s rotary3;
#X connect 0 0 8 0;
#X connect 1 0 2 0;
#X connect 1 1 3 0;
#X connect 1 2 4 0;
#X connect 1 3 5 0;
#X connect 1 4 12 0;
#X connect 1 5 13 0;
#X connect 2 0 14 0;
#X connect 3 0 15 0;
#X connect 4 0 16 0;
#X connect 6 0 11 0;
#X connect 6 1 10 0;
#X connect 6 2 9 0;
#X connect 6 3 7 0;
#X connect 8 0 1 0;
#X connect 8 0 6 0;
#X restore 706 136 pd 2screen3;
#N canvas 269 375 917 310 2screen4 0;
#X obj 140 26 inlet;
#X obj 305 39 OSCroute /toggle1 /toggle2 /toggle3 /toggle4 /toggle5
;
#X obj 130 169 unpack f f;
#X floatatom 130 197 5 0 0 0 - - -;
#X floatatom 187 198 5 0 0 0 - - -;
#X obj 130 138 OSCroute /xy;
#X obj 137 61 OSCroute /4;
#X obj 187 231 s xcoord;
#X obj 130 229 s ycoord;
#X obj 305 81 s 4tog1;
#X obj 368 81 s 4tog2;
#X obj 431 82 s 4tog3;
#X obj 495 81 s 4tog4;
#X obj 561 81 s 4tog5;
#X connect 0 0 6 0;
#X connect 1 0 9 0;
#X connect 1 1 10 0;
#X connect 1 2 11 0;
#X connect 1 3 12 0;
#X connect 1 4 13 0;
#X connect 2 0 3 0;
#X connect 2 1 4 0;
#X connect 3 0 8 0;
#X connect 4 0 7 0;
#X connect 5 0 2 0;
#X connect 6 0 1 0;
#X connect 6 0 5 0;
#X restore 779 135 pd 2screen4;
#X obj 854 165 s 2accx;
#X obj 895 186 s 2accy;
#X obj 930 165 s 2accz;
#X text 753 44 PHONE;
#X text 264 47 TABLET;
#X msg 643 27 port 9000;
#X msg 312 34 port 8000;
#X connect 0 0 3 0;
#X connect 0 0 4 0;
#X connect 0 0 5 0;
#X connect 0 0 6 0;
#X connect 0 0 9 0;
#X connect 7 0 0 0;
#X connect 9 0 10 0;
#X connect 10 0 11 0;
#X connect 10 1 12 0;
#X connect 10 2 13 0;
#X connect 14 0 18 0;
#X connect 14 0 19 0;
#X connect 14 0 20 0;
#X connect 14 0 21 0;
#X connect 14 0 15 0;
#X connect 15 0 16 0;
#X connect 16 0 22 0;
#X connect 16 1 23 0;
#X connect 16 2 24 0;
#X connect 17 0 14 0;
#X connect 27 0 17 0;
#X connect 28 0 7 0;
