#N canvas 186 16 1011 759 10;
#N canvas 1050 79 704 758 fileload 0;
#N canvas 0 0 450 300 (subpatch) 0;
#X array array1 2.79832e+006 float 2;
#X coords 0 1 2.79832e+006 -1 200 140 1;
#X restore 456 367 graph;
#X obj 57 92 openpanel;
#X obj 57 68 bng 15 250 50 0 empty empty empty 0 -6 0 8 -262144 -1
-1;
#X obj 57 144 soundfiler;
#X obj 57 182 expr 44100 / $f1;
#X floatatom 57 342 5 0 0 0 - - -;
#X obj 57 437 phasor~;
#X obj 459 513 hsl 200 15 0 1 0 0 empty empty empty -2 -6 0 8 -262144
-1 -1 0 1;
#X text 457 536 0;
#X obj 57 410 *;
#X obj 173 291 hsl 128 15 -2 2 0 0 empty empty empty -2 -6 0 8 -262144
-1 -1 0 1;
#X text 154 304 -2;
#X text 292 305 2;
#X obj 456 331 hsl 200 15 0 1 0 0 empty empty empty -2 -6 0 8 -262144
-1 -1 0 1;
#X obj 455 297 hsl 200 15 0 1 0 0 empty empty empty -2 -6 0 8 -262144
-1 -1 0 1;
#X obj 58 538 +~;
#X obj 208 431 -;
#X floatatom 208 397 5 0 0 0 - - -;
#X obj 276 393 t f b;
#X obj 61 626 *~;
#X obj 87 221 expr 1 / $f1;
#X obj 87 272 *;
#X obj 115 594 unsig~ 20;
#X text 451 271 0;
#X text 80 65 first load sound file;
#X text 485 266 left limit;
#X text 253 428 difference of both (;
#X text 250 447 always calculated \, not;
#X text 249 490 input on the left);
#X obj 94 310 t b f;
#X obj 58 501 *~;
#X text 246 464 only if there is an;
#X text 163 263 playback speed;
#X floatatom 200 487 5 0 0 0 - - -;
#X floatatom 425 541 15 0 0 0 - - -;
#X floatatom 413 603 15 0 0 0 - - -;
#X obj 405 563 *;
#X obj 269 551 abs;
#X floatatom 195 338 5 0 0 0 - - -;
#X msg 57 118 read -resize \$1 mainfile;
#X floatatom 453 267 5 0 0 0 - leftlimit -;
#X floatatom 475 309 5 0 0 0 - rightlimit -;
#X floatatom 163 625 5 0 0 0 - - position;
#X floatatom 173 197 5 0 0 0 - playback_speed -;
#X obj 63 695 s~ transposesend;
#X obj 423 635 s windowwidth;
#X obj 54 41 r openfile;
#X obj 61 655 tabread4~ mainfile;
#X msg 342 28 2;
#X msg 376 28 1.75;
#X msg 416 28 1.5;
#X msg 452 28 1.25;
#X msg 344 74 1;
#X msg 382 74 0.75;
#X msg 420 74 0.5;
#X msg 456 72 0.25;
#X msg 350 124 -0.25;
#X msg 388 126 -0.5;
#X msg 422 124 -0.75;
#X msg 466 124 -1;
#X msg 344 184 -1.25;
#X msg 394 186 -1.5;
#X msg 438 188 -1.75;
#X msg 486 192 -2;
#X obj 344 10 bng 15 250 50 0 empty pb2 empty 17 7 0 10 -262144 -1
-1;
#X obj 301 238 s playbackplayback;
#X obj 375 5 bng 15 250 50 0 empty pb175 empty 17 7 0 10 -262144 -1
-1;
#X obj 415 5 bng 15 250 50 0 empty pb15 empty 17 7 0 10 -262144 -1
-1;
#X obj 453 7 bng 15 250 50 0 empty pb125 empty 17 7 0 10 -262144 -1
-1;
#X obj 459 50 bng 15 250 50 0 empty pb25 empty 17 7 0 10 -262144 -1
-1;
#X obj 417 52 bng 15 250 50 0 empty pb5 empty 17 7 0 10 -262144 -1
-1;
#X obj 380 52 bng 15 250 50 0 empty pb75 empty 17 7 0 10 -262144 -1
-1;
#X obj 344 53 bng 15 250 50 0 empty pb1 empty 17 7 0 10 -262144 -1
-1;
#X obj 348 103 bng 15 250 50 0 empty pb-25 empty 17 7 0 10 -262144
-1 -1;
#X obj 388 103 bng 15 250 50 0 empty pb-5 empty 17 7 0 10 -262144 -1
-1;
#X obj 418 103 bng 15 250 50 0 empty pb-75 empty 17 7 0 10 -262144
-1 -1;
#X obj 468 103 bng 15 250 50 0 empty pb-1 empty 17 7 0 10 -262144 -1
-1;
#X obj 484 171 bng 15 250 50 0 empty pb-2 empty 17 7 0 10 -262144 -1
-1;
#X obj 438 168 bng 15 250 50 0 empty pb-175 empty 17 7 0 10 -262144
-1 -1;
#X obj 394 166 bng 15 250 50 0 empty pb-15 empty 17 7 0 10 -262144
-1 -1;
#X obj 345 164 bng 15 250 50 0 empty pb-125 empty 17 7 0 10 -262144
-1 -1;
#X connect 1 0 39 0;
#X connect 2 0 1 0;
#X connect 3 0 4 0;
#X connect 3 0 19 1;
#X connect 3 0 34 0;
#X connect 4 0 21 1;
#X connect 5 0 9 0;
#X connect 6 0 30 0;
#X connect 9 0 6 0;
#X connect 10 0 29 0;
#X connect 10 0 38 0;
#X connect 13 0 17 0;
#X connect 14 0 18 0;
#X connect 15 0 19 0;
#X connect 15 0 22 0;
#X connect 16 0 20 0;
#X connect 16 0 30 1;
#X connect 16 0 33 0;
#X connect 17 0 16 0;
#X connect 18 0 16 1;
#X connect 18 0 15 1;
#X connect 18 1 17 0;
#X connect 19 0 47 0;
#X connect 20 0 21 0;
#X connect 21 0 5 0;
#X connect 22 0 7 0;
#X connect 22 0 42 0;
#X connect 29 0 5 0;
#X connect 29 1 9 1;
#X connect 30 0 15 0;
#X connect 33 0 37 0;
#X connect 34 0 36 1;
#X connect 35 0 45 0;
#X connect 36 0 35 0;
#X connect 37 0 36 0;
#X connect 39 0 3 0;
#X connect 40 0 14 0;
#X connect 41 0 13 0;
#X connect 43 0 10 0;
#X connect 46 0 2 0;
#X connect 47 0 44 0;
#X connect 48 0 65 0;
#X connect 49 0 65 0;
#X connect 50 0 65 0;
#X connect 51 0 65 0;
#X connect 52 0 65 0;
#X connect 53 0 65 0;
#X connect 54 0 65 0;
#X connect 55 0 65 0;
#X connect 56 0 65 0;
#X connect 57 0 65 0;
#X connect 58 0 65 0;
#X connect 59 0 65 0;
#X connect 60 0 65 0;
#X connect 61 0 65 0;
#X connect 62 0 65 0;
#X connect 63 0 65 0;
#X connect 64 0 48 0;
#X connect 66 0 49 0;
#X connect 67 0 50 0;
#X connect 68 0 51 0;
#X connect 69 0 55 0;
#X connect 70 0 54 0;
#X connect 71 0 53 0;
#X connect 72 0 52 0;
#X connect 73 0 56 0;
#X connect 74 0 57 0;
#X connect 75 0 58 0;
#X connect 76 0 59 0;
#X connect 77 0 63 0;
#X connect 78 0 62 0;
#X connect 79 0 61 0;
#X connect 80 0 60 0;
#X restore 715 642 pd fileload;
#N canvas 0 0 450 300 (subpatch) 0;
#X array mainfile 6.5028e+006 float 2;
#X coords 0 -1 6.5028e+006 1 500 200 1 0 0;
#X restore 36 89 graph;
#X obj 39 57 hsl 495 15 0 1 0 0 rightlimit empty empty -2 -6 0 8 -228856
-1 -1 0 1;
#X obj 39 37 hsl 495 15 0 1 0 0 leftlimit empty empty -2 -6 0 8 -228856
-1 -1 0 1;
#X obj 39 291 hsl 495 15 0 1 0 0 empty position empty -2 -6 0 8 -228856
-1 -1 0 1;
#X obj 550 39 vsl 20 265 -2 2 0 0 playback_speed playbackplayback empty
0 -9 0 10 -191407 -1 -1 0 1;
#N canvas 1098 175 646 456 transposer 0;
#X floatatom 90 325 15 0 0 0 - - -;
#X floatatom 249 285 5 0 0 0 - - -;
#X obj 249 306 t b f;
#X obj 123 372 / 44.1;
#X obj 108 41 vsl 20 200 0 1e+007 0 0 empty empty empty 0 -8 0 8 -262144
-1 -1 0 1;
#X obj 102 281 t b f;
#X obj 245 63 vsl 20 200 -48 24 0 0 empty empty empty 0 -8 0 8 -262144
-1 -1 0 1;
#X obj 90 346 expr (pow(2 \, ($f2/12)) - 1) * (44100/$f1);
#X text 83 17 window width;
#X text 397 21 Transposition (half-steps);
#X msg 482 119 -28.5;
#X msg 480 63 10;
#X msg 480 89 2;
#X obj 450 215 * -1;
#X obj 391 96 random 30;
#X obj 391 52 tgl 15 0 empty empty empty 17 7 0 10 -262144 -1 -1 0
1;
#X obj 391 70 metro 1500;
#X obj 393 128 - 25;
#X text 137 38 1million;
#X text 224 61 16;
#X text 212 256 -48;
#X text 135 234 0;
#X obj 9 82 r windowwidth;
#X obj 189 14 r width;
#X obj 257 30 r transpose;
#X obj 69 399 s phase;
#X obj 123 399 s offset;
#X obj 453 153 r transpose_up;
#X obj 451 185 r transpose_down;
#X obj 345 175 r transpose_0;
#X msg 347 203 0;
#X obj 409 338 s transposition_semitone;
#X obj 421 250 s pinkslider;
#X connect 0 0 3 0;
#X connect 0 0 7 0;
#X connect 1 0 2 0;
#X connect 1 0 31 0;
#X connect 2 0 0 0;
#X connect 2 1 7 1;
#X connect 3 0 26 0;
#X connect 4 0 5 0;
#X connect 5 0 1 0;
#X connect 5 1 0 0;
#X connect 6 0 1 0;
#X connect 7 0 25 0;
#X connect 10 0 6 0;
#X connect 11 0 6 0;
#X connect 12 0 6 0;
#X connect 13 0 32 0;
#X connect 14 0 17 0;
#X connect 15 0 16 0;
#X connect 16 0 14 0;
#X connect 17 0 6 0;
#X connect 22 0 4 0;
#X connect 23 0 4 0;
#X connect 24 0 6 0;
#X connect 27 0 32 0;
#X connect 28 0 13 0;
#X connect 29 0 30 0;
#X connect 30 0 32 0;
#X restore 715 663 pd transposer;
#X obj 62 353 vsl 25 150 0 1e+007 0 0 width windowwidth empty 0 -9
0 10 -162280 -1 -1 0 1;
#X obj 644 351 vsl 20 150 -24 24 0 0 transpose pinkslider empty 0 -9
0 10 -261234 -1 -1 0 1;
#X text 58 331 width;
#X text 625 329 transpose;
#N canvas 92 183 1534 678 delaylines 0;
#X obj 27 77 r~ transposesend;
#X obj 27 101 delwrite~ b1 500000;
#X obj 615 73 r offset;
#X obj 539 73 r phase;
#X obj 831 430 vd~ b1;
#X obj 539 101 phasor~;
#X obj 833 298 *~ -1;
#X obj 833 323 +~ 1;
#X obj 872 403 sig~ 1;
#X obj 915 403 cos~;
#X obj 873 426 -~;
#X obj 874 451 *~ 0.5;
#X obj 841 454 *~;
#X obj 846 372 samphold~;
#X obj 832 401 *~;
#X obj 845 352 sig~;
#X obj 946 431 vd~ b1;
#X obj 946 312 *~ -1;
#X obj 947 334 +~ 1;
#X obj 988 402 sig~ 1;
#X obj 1030 401 cos~;
#X obj 987 424 -~;
#X obj 988 447 *~ 0.5;
#X obj 949 456 *~;
#X obj 959 378 samphold~;
#X obj 945 405 *~;
#X obj 960 356 sig~;
#X obj 946 292 wrap~;
#X obj 1063 436 vd~ b1;
#X obj 1062 297 *~ -1;
#X obj 1062 322 +~ 1;
#X obj 1103 393 sig~ 1;
#X obj 1146 393 cos~;
#X obj 1106 415 -~;
#X obj 1107 435 *~ 0.5;
#X obj 1067 458 *~;
#X obj 1073 372 samphold~;
#X obj 1062 401 *~;
#X obj 1074 344 sig~;
#X obj 1186 308 *~ -1;
#X obj 1187 329 +~ 1;
#X obj 1219 403 sig~ 1;
#X obj 1220 424 -~;
#X obj 1219 447 *~ 0.5;
#X obj 1179 451 *~;
#X obj 1193 378 samphold~;
#X obj 1179 403 *~;
#X obj 1192 354 sig~;
#X obj 1185 288 wrap~;
#X obj 1062 274 wrap~;
#X obj 1180 424 vd~ b1;
#X obj 1262 404 cos~;
#X obj -191 430 vd~ b1;
#X obj -190 295 *~ -1;
#X obj -190 320 +~ 1;
#X obj -146 395 sig~ 1;
#X obj -99 396 cos~;
#X obj -142 420 -~;
#X obj -141 443 *~ 0.5;
#X obj -190 464 *~;
#X obj -182 372 samphold~;
#X obj -190 397 *~;
#X obj -181 344 sig~;
#X obj -63 428 vd~ b1;
#X obj -66 295 *~ -1;
#X obj -66 319 +~ 1;
#X obj -15 401 sig~ 1;
#X obj 33 400 cos~;
#X obj -14 432 -~;
#X obj -13 457 *~ 0.5;
#X obj -64 477 *~;
#X obj -52 370 samphold~;
#X obj -66 395 *~;
#X obj -51 342 sig~;
#X obj -66 269 wrap~;
#X obj 68 433 vd~ b1;
#X obj 65 299 *~ -1;
#X obj 65 324 +~ 1;
#X obj 115 400 sig~ 1;
#X obj 164 402 cos~;
#X obj 116 433 -~;
#X obj 117 458 *~ 0.5;
#X obj 68 477 *~;
#X obj 76 374 samphold~;
#X obj 65 400 *~;
#X obj 77 346 sig~;
#X obj 199 434 vd~ b1;
#X obj 195 298 *~ -1;
#X obj 196 322 +~ 1;
#X obj 246 403 sig~ 1;
#X obj 294 402 cos~;
#X obj 247 434 -~;
#X obj 248 459 *~ 0.5;
#X obj 198 479 *~;
#X obj 210 374 samphold~;
#X obj 196 401 *~;
#X obj 211 346 sig~;
#X obj 196 273 wrap~;
#X obj 64 269 wrap~;
#X obj -191 268 wrap~;
#X obj 326 435 vd~ b1;
#X obj 327 297 *~ -1;
#X obj 327 322 +~ 1;
#X obj 371 400 sig~ 1;
#X obj 418 401 cos~;
#X obj 375 425 -~;
#X obj 376 448 *~ 0.5;
#X obj 327 469 *~;
#X obj 335 375 samphold~;
#X obj 327 402 *~;
#X obj 336 347 sig~;
#X obj 327 271 wrap~;
#X obj 449 434 vd~ b1;
#X obj 450 297 *~ -1;
#X obj 450 322 +~ 1;
#X obj 494 399 sig~ 1;
#X obj 541 400 cos~;
#X obj 498 424 -~;
#X obj 499 447 *~ 0.5;
#X obj 450 468 *~;
#X obj 458 374 samphold~;
#X obj 450 401 *~;
#X obj 459 346 sig~;
#X obj 450 273 wrap~;
#X obj 575 433 vd~ b1;
#X obj 575 299 *~ -1;
#X obj 576 322 +~ 1;
#X obj 620 398 sig~ 1;
#X obj 667 399 cos~;
#X obj 624 423 -~;
#X obj 625 446 *~ 0.5;
#X obj 576 467 *~;
#X obj 584 373 samphold~;
#X obj 576 400 *~;
#X obj 585 345 sig~;
#X obj 575 275 wrap~;
#X obj 701 433 vd~ b1;
#X obj 702 297 *~ -1;
#X obj 702 322 +~ 1;
#X obj 746 398 sig~ 1;
#X obj 793 399 cos~;
#X obj 750 423 -~;
#X obj 751 448 *~ 0.5;
#X obj 702 467 *~;
#X obj 710 373 samphold~;
#X obj 702 400 *~;
#X obj 711 345 sig~;
#X obj 701 274 wrap~;
#X obj -187 246 +~ 0.0833;
#X obj -66 247 +~ 0.16666;
#X obj 64 247 +~ 0.25;
#X obj 196 251 +~ 0.33333;
#X obj 328 249 +~ 0.416667;
#X obj 450 251 +~ 0.5;
#X obj 575 253 +~ 0.58333;
#X obj 701 252 +~ 0.666666;
#X obj 945 271 +~ 0.75;
#X obj 1062 252 +~ 0.833333;
#X obj 1185 266 +~ 0.916667;
#X text 249 70 all phases offset by 1/12 or 0.0833333;
#X obj 435 595 s~ delayoutput;
#X connect 0 0 1 0;
#X connect 2 0 47 0;
#X connect 2 0 38 0;
#X connect 2 0 26 0;
#X connect 2 0 15 0;
#X connect 2 0 146 0;
#X connect 2 0 134 0;
#X connect 2 0 122 0;
#X connect 2 0 110 0;
#X connect 2 0 96 0;
#X connect 2 0 85 0;
#X connect 2 0 73 0;
#X connect 2 0 62 0;
#X connect 3 0 5 0;
#X connect 4 0 12 0;
#X connect 5 0 6 0;
#X connect 5 0 9 0;
#X connect 5 0 13 1;
#X connect 5 0 148 0;
#X connect 5 0 149 0;
#X connect 5 0 150 0;
#X connect 5 0 151 0;
#X connect 5 0 152 0;
#X connect 5 0 153 0;
#X connect 5 0 154 0;
#X connect 5 0 155 0;
#X connect 5 0 156 0;
#X connect 5 0 157 0;
#X connect 5 0 158 0;
#X connect 6 0 7 0;
#X connect 7 0 14 0;
#X connect 8 0 10 0;
#X connect 9 0 10 1;
#X connect 10 0 11 0;
#X connect 11 0 12 1;
#X connect 12 0 160 0;
#X connect 13 0 14 1;
#X connect 14 0 4 0;
#X connect 15 0 13 0;
#X connect 16 0 23 0;
#X connect 17 0 18 0;
#X connect 18 0 25 0;
#X connect 19 0 21 0;
#X connect 20 0 21 1;
#X connect 21 0 22 0;
#X connect 22 0 23 1;
#X connect 23 0 160 0;
#X connect 24 0 25 1;
#X connect 25 0 16 0;
#X connect 26 0 24 0;
#X connect 27 0 17 0;
#X connect 27 0 24 1;
#X connect 27 0 20 0;
#X connect 28 0 35 0;
#X connect 29 0 30 0;
#X connect 30 0 37 0;
#X connect 31 0 33 0;
#X connect 32 0 33 1;
#X connect 33 0 34 0;
#X connect 34 0 35 1;
#X connect 35 0 160 0;
#X connect 36 0 37 1;
#X connect 37 0 28 0;
#X connect 38 0 36 0;
#X connect 39 0 40 0;
#X connect 40 0 46 0;
#X connect 41 0 42 0;
#X connect 42 0 43 0;
#X connect 43 0 44 1;
#X connect 44 0 160 0;
#X connect 45 0 46 1;
#X connect 46 0 50 0;
#X connect 47 0 45 0;
#X connect 48 0 39 0;
#X connect 48 0 45 1;
#X connect 48 0 51 0;
#X connect 49 0 29 0;
#X connect 49 0 36 1;
#X connect 49 0 32 0;
#X connect 50 0 44 0;
#X connect 51 0 42 1;
#X connect 52 0 59 0;
#X connect 53 0 54 0;
#X connect 54 0 61 0;
#X connect 55 0 57 0;
#X connect 56 0 57 1;
#X connect 57 0 58 0;
#X connect 58 0 59 1;
#X connect 59 0 160 0;
#X connect 60 0 61 1;
#X connect 61 0 52 0;
#X connect 62 0 60 0;
#X connect 63 0 70 0;
#X connect 64 0 65 0;
#X connect 65 0 72 0;
#X connect 66 0 68 0;
#X connect 67 0 68 1;
#X connect 68 0 69 0;
#X connect 69 0 70 1;
#X connect 70 0 160 0;
#X connect 71 0 72 1;
#X connect 72 0 63 0;
#X connect 73 0 71 0;
#X connect 74 0 64 0;
#X connect 74 0 71 1;
#X connect 74 0 67 0;
#X connect 75 0 82 0;
#X connect 76 0 77 0;
#X connect 77 0 84 0;
#X connect 78 0 80 0;
#X connect 79 0 80 1;
#X connect 80 0 81 0;
#X connect 81 0 82 1;
#X connect 82 0 160 0;
#X connect 83 0 84 1;
#X connect 84 0 75 0;
#X connect 85 0 83 0;
#X connect 86 0 93 0;
#X connect 87 0 88 0;
#X connect 88 0 95 0;
#X connect 89 0 91 0;
#X connect 90 0 91 1;
#X connect 91 0 92 0;
#X connect 92 0 93 1;
#X connect 93 0 160 0;
#X connect 94 0 95 1;
#X connect 95 0 86 0;
#X connect 96 0 94 0;
#X connect 97 0 87 0;
#X connect 97 0 94 1;
#X connect 97 0 90 0;
#X connect 98 0 76 0;
#X connect 98 0 83 1;
#X connect 98 0 79 0;
#X connect 99 0 53 0;
#X connect 99 0 60 1;
#X connect 99 0 56 0;
#X connect 100 0 107 0;
#X connect 101 0 102 0;
#X connect 102 0 109 0;
#X connect 103 0 105 0;
#X connect 104 0 105 1;
#X connect 105 0 106 0;
#X connect 106 0 107 1;
#X connect 107 0 160 0;
#X connect 108 0 109 1;
#X connect 109 0 100 0;
#X connect 110 0 108 0;
#X connect 111 0 101 0;
#X connect 111 0 108 1;
#X connect 111 0 104 0;
#X connect 112 0 119 0;
#X connect 113 0 114 0;
#X connect 114 0 121 0;
#X connect 115 0 117 0;
#X connect 116 0 117 1;
#X connect 117 0 118 0;
#X connect 118 0 119 1;
#X connect 119 0 160 0;
#X connect 120 0 121 1;
#X connect 121 0 112 0;
#X connect 122 0 120 0;
#X connect 123 0 113 0;
#X connect 123 0 120 1;
#X connect 123 0 116 0;
#X connect 124 0 131 0;
#X connect 125 0 126 0;
#X connect 126 0 133 0;
#X connect 127 0 129 0;
#X connect 128 0 129 1;
#X connect 129 0 130 0;
#X connect 130 0 131 1;
#X connect 131 0 160 0;
#X connect 132 0 133 1;
#X connect 133 0 124 0;
#X connect 134 0 132 0;
#X connect 135 0 125 0;
#X connect 135 0 132 1;
#X connect 135 0 128 0;
#X connect 136 0 143 0;
#X connect 137 0 138 0;
#X connect 138 0 145 0;
#X connect 139 0 141 0;
#X connect 140 0 141 1;
#X connect 141 0 142 0;
#X connect 142 0 143 1;
#X connect 143 0 160 0;
#X connect 144 0 145 1;
#X connect 145 0 136 0;
#X connect 146 0 144 0;
#X connect 147 0 137 0;
#X connect 147 0 144 1;
#X connect 147 0 140 0;
#X connect 148 0 99 0;
#X connect 149 0 74 0;
#X connect 150 0 98 0;
#X connect 151 0 97 0;
#X connect 152 0 111 0;
#X connect 153 0 123 0;
#X connect 154 0 135 0;
#X connect 155 0 147 0;
#X connect 156 0 27 0;
#X connect 157 0 49 0;
#X connect 158 0 48 0;
#X restore 715 622 pd delaylines;
#X obj 664 648 bng 25 250 50 0 openfile empty empty 17 7 0 10 -258113
-1 -1;
#N canvas 925 201 542 567 reverb 0;
#X obj 99 177 freeverb~;
#X obj 228 69 r~ delayoutput;
#X obj 228 102 *~;
#X obj 321 85 r mastervolume;
#X obj 228 143 pan~;
#X text 425 124 -45 to 45;
#X obj 98 345 dac~;
#X msg 6 39 roomsize \$1;
#X msg 92 39 damping \$1;
#X msg 173 38 width \$1;
#X msg 6 88 wet \$1;
#X msg 72 88 dry \$1;
#X msg 133 87 freeze \$1;
#X msg 7 140 bypass \$1;
#X obj 6 19 r roomsize;
#X obj 92 20 r damping;
#X obj 173 18 r roomwidth;
#X obj 6 67 r wet;
#X obj 72 67 r dry;
#X obj 133 66 r freeze;
#X obj 7 121 r bypass;
#X obj 150 230 pan~;
#X obj 98 230 pan~;
#X obj 97 288 +~;
#X obj 156 288 +~;
#X obj 275 217 hsl 128 15 0 1 0 0 empty empty empty -2 -8 0 10 -262144
-1 -1 0 1;
#X obj 272 257 unsig~ 10;
#X obj 272 277 * 45;
#X obj 275 367 hsl 128 15 0 1 0 0 empty empty empty -2 -8 0 10 -262144
-1 -1 0 1;
#X obj 272 407 unsig~ 10;
#X obj 272 427 * 45;
#X obj 362 237 bng 15 250 50 0 empty panning_reset empty 17 7 0 10
-262144 -1 -1;
#X obj 272 453 spigot;
#X obj 272 305 spigot;
#X obj 360 257 tgl 15 0 empty empty empty 17 7 0 10 -262144 -1 -1 0
1;
#X obj 440 287 tgl 15 0 empty empty empty 17 7 0 10 -262144 -1 -1 1
1;
#X obj 440 263 loadbang;
#X obj 272 236 osc~ 0;
#X obj 272 386 osc~ 0;
#X obj 406 313 spigot;
#X msg 406 289 0;
#X obj 460 329 t b;
#X obj 398 261 t b;
#X msg 358 323 0;
#X text 336 177 PANNING THING STILL IN BETA;
#X obj 322 126 r master_panning;
#X obj 380 398 r panleft;
#X obj 270 174 r panright;
#X connect 0 0 22 0;
#X connect 0 1 21 0;
#X connect 1 0 2 0;
#X connect 2 0 4 0;
#X connect 3 0 2 1;
#X connect 4 0 0 0;
#X connect 4 1 0 1;
#X connect 7 0 0 0;
#X connect 8 0 0 0;
#X connect 9 0 0 0;
#X connect 10 0 0 0;
#X connect 11 0 0 0;
#X connect 12 0 0 0;
#X connect 13 0 0 0;
#X connect 14 0 7 0;
#X connect 15 0 8 0;
#X connect 16 0 9 0;
#X connect 17 0 10 0;
#X connect 18 0 11 0;
#X connect 19 0 12 0;
#X connect 20 0 13 0;
#X connect 21 0 23 1;
#X connect 21 1 24 1;
#X connect 22 0 23 0;
#X connect 22 1 24 0;
#X connect 23 0 6 0;
#X connect 24 0 6 1;
#X connect 25 0 37 0;
#X connect 26 0 27 0;
#X connect 27 0 33 0;
#X connect 28 0 38 0;
#X connect 29 0 30 0;
#X connect 30 0 32 0;
#X connect 31 0 34 0;
#X connect 31 0 43 0;
#X connect 32 0 22 1;
#X connect 33 0 21 1;
#X connect 34 0 33 1;
#X connect 34 0 32 1;
#X connect 34 0 42 0;
#X connect 35 0 39 1;
#X connect 35 0 41 0;
#X connect 36 0 35 0;
#X connect 37 0 26 0;
#X connect 38 0 29 0;
#X connect 39 0 21 1;
#X connect 39 0 22 1;
#X connect 40 0 39 0;
#X connect 41 0 40 0;
#X connect 42 0 35 0;
#X connect 43 0 25 0;
#X connect 43 0 28 0;
#X connect 45 0 4 1;
#X connect 46 0 28 0;
#X connect 47 0 25 0;
#X restore 716 683 pd reverb;
#X obj 672 38 vsl 25 265 0 1 0 0 mastervolume empty empty 0 -9 0 10
-260097 -1 -1 0 1;
#X text 651 19 mastervolume;
#X obj 55 600 hsl 128 15 0.001 1 0 0 roomsize empty roomsize -2 -8
0 10 -203904 -1 -1 0 1;
#X obj 55 631 hsl 128 15 0 2 0 0 damping empty damping -2 -8 0 10 -204786
-1 -1 0 1;
#X obj 55 662 hsl 128 15 0 1 0 0 roomwidth empty width -2 -8 0 10 -232576
-1 -1 0 1;
#X obj 239 609 hsl 128 15 0 1 0 0 wet empty wet -2 -8 0 10 -4032 -1
-1 0 1;
#X obj 239 649 hsl 128 15 0 1 0 0 dry empty dry -2 -8 0 10 -4034 -1
-1 0 1;
#X obj 197 599 tgl 25 0 freeze empty empty 17 7 0 10 -228856 -1 -1
0 1;
#X obj 197 653 tgl 25 0 bypass empty empty 17 7 0 10 -191407 -1 -1
0 1;
#X text 191 581 freeze;
#X text 193 635 bypass;
#X obj 462 605 hsl 128 15 -45 45 0 0 master_panning empty master_panning
-2 -8 0 10 -257985 -1 -1 0 1;
#X obj 153 384 hradio 20 1 0 24 transpose_up empty transpose_up 0 -8
0 10 -191407 -1 -1 0;
#X obj 153 442 hradio 20 1 0 24 transpose_down empty transpose_down
0 -8 0 10 -228856 -1 -1 0;
#X text 373 366 +12;
#X text 612 364 +24;
#X text 372 425 -12;
#X text 612 426 -24;
#X obj 373 490 bng 20 250 50 0 transpose_0 empty empty 17 7 0 10 -262144
-1 -1;
#X text 377 474 0;
#X floatatom 644 526 6 0 0 2 transposition_step transposition_semitone
-;
#X text 171 558 REVERB UNIT;
#X obj 517 709 tgl 20 0 panning_reset empty empty 17 7 0 10 -262144
-1 -1 0 1;
#X obj 463 635 hsl 128 15 0 1 0 0 panleft empty pan_left -2 -8 0 10
-262130 -1 -1 0 1;
#X obj 463 667 hsl 128 15 0 1 0 0 panright empty panright -2 -8 0 10
-262130 -1 -1 0 1;
#X text 499 569 PANNING;
#X text 650 628 OPEN FILE;
#X text 465 690 switch panning mode;
#X text 679 699 DAC~ in here ^^;
#X obj 598 33 bng 15 250 50 0 pb2 empty empty 17 7 0 10 -262144 -1
-1;
#X floatatom 548 313 5 0 0 0 - playback_speed -;
#X obj 616 50 bng 15 250 50 0 pb175 empty empty 17 7 0 10 -262144 -1
-1;
#X text 582 30 2;
#X text 573 46 1.75;
#X text 522 1 playback speed;
#X text 573 64 1.5;
#X obj 598 65 bng 15 250 50 0 pb15 empty empty 17 7 0 10 -262144 -1
-1;
#X text 573 80 1.25;
#X text 573 97 1;
#X text 573 114 0.75;
#X text 573 130 0.5;
#X text 573 146 0.25;
#X text 568 179 -0.25;
#X text 568 197 -0.5;
#X text 568 212 -0.75;
#X text 568 228 -1;
#X text 568 245 -1.25;
#X text 568 262 -1.5;
#X text 568 278 -1.75;
#X text 568 294 -2;
#X obj 616 82 bng 15 250 50 0 pb125 empty empty 17 7 0 10 -262144 -1
-1;
#X obj 599 98 bng 15 250 50 0 pb1 empty empty 17 7 0 10 -262144 -1
-1;
#X obj 616 115 bng 15 250 50 0 pb75 empty empty 17 7 0 10 -262144 -1
-1;
#X obj 598 132 bng 15 250 50 0 pb5 empty empty 17 7 0 10 -262144 -1
-1;
#X obj 616 149 bng 15 250 50 0 pb25 empty empty 17 7 0 10 -262144 -1
-1;
#X obj 616 181 bng 15 250 50 0 pb-25 empty empty 17 7 0 10 -262144
-1 -1;
#X obj 599 197 bng 15 250 50 0 pb-5 empty empty 17 7 0 10 -262144 -1
-1;
#X obj 616 214 bng 15 250 50 0 pb-75 empty empty 17 7 0 10 -262144
-1 -1;
#X obj 598 230 bng 15 250 50 0 pb-1 empty empty 17 7 0 10 -262144 -1
-1;
#X obj 616 247 bng 15 250 50 0 pb-125 empty empty 17 7 0 10 -262144
-1 -1;
#X obj 598 262 bng 15 250 50 0 pb-15 empty empty 17 7 0 10 -262144
-1 -1;
#X obj 616 279 bng 15 250 50 0 pb-175 empty empty 17 7 0 10 -262144
-1 -1;
#X obj 599 295 bng 15 250 50 0 pb-2 empty empty 17 7 0 10 -262144 -1
-1;
#X text 709 39 gotta adjust dry too;
#X text 530 9 comment;
#X text 44 10 loop position;
#X text 48 309 play position;
#X text 718 106;
#X text 744 169 README Ok so this isnt the most intuitive thing of
all time but it does work first you have to load the sound in wav format
big red button at bottom then you have to adjust the loop positions
and then playback speed then volume \, transpositions etc;
