#N canvas 0 0 1920 990 10;
#X obj 97 465 tgl 15 0 empty empty empty 17 7 0 10 -262144 -1 -1 1
1;
#X obj 97 489 gemhead;
#X text 310 61 mp4;
#X obj 280 136 pix_film;
#X obj 361 100 tgl 15 0 empty empty empty 17 7 0 10 -262144 -1 -1 1
1;
#X msg 360 119 auto \$1;
#X msg 349 139 0;
#N canvas 444 110 850 718 videodir 0;
#X msg 120 281 open C:/Users/Raul/Desktop/VideoLoops/1.mp4;
#X msg 120 308 open C:/Users/Raul/Desktop/VideoLoops/2.mp4;
#X msg 120 331 open C:/Users/Raul/Desktop/VideoLoops/3.mp4;
#X msg 120 358 open C:/Users/Raul/Desktop/VideoLoops/4.mp4;
#X msg 120 383 open C:/Users/Raul/Desktop/VideoLoops/5.mp4;
#X msg 120 408 open C:/Users/Raul/Desktop/VideoLoops/6.mp4;
#X msg 120 433 open C:/Users/Raul/Desktop/VideoLoops/7.mp4;
#X msg 120 460 open C:/Users/Raul/Desktop/VideoLoops/8.mp4;
#X msg 120 484 open C:/Users/Raul/Desktop/VideoLoops/9.mp4;
#X msg 120 509 open C:/Users/Raul/Desktop/VideoLoops/10.mp4;
#X msg 120 534 open C:/Users/Raul/Desktop/VideoLoops/11.mp4;
#X msg 120 561 open C:/Users/Raul/Desktop/VideoLoops/12.mp4;
#X msg 120 586 open C:/Users/Raul/Desktop/VideoLoops/13.mp4;
#X msg 120 611 open C:/Users/Raul/Desktop/VideoLoops/14.mp4;
#X msg 120 638 open C:/Users/Raul/Desktop/VideoLoops/15.mp4;
#X msg 120 663 open C:/Users/Raul/Desktop/VideoLoops/16.mp4;
#X msg 419 280 open C:/Users/Raul/Desktop/VideoLoops/17.mp4;
#X msg 419 305 open C:/Users/Raul/Desktop/VideoLoops/18.mp4;
#X msg 419 330 open C:/Users/Raul/Desktop/VideoLoops/19.mp4;
#X msg 418 357 open C:/Users/Raul/Desktop/VideoLoops/20.mp4;
#X msg 419 382 open C:/Users/Raul/Desktop/VideoLoops/21.mp4;
#X msg 419 407 open C:/Users/Raul/Desktop/VideoLoops/22.mp4;
#X msg 419 432 open C:/Users/Raul/Desktop/VideoLoops/23.mp4;
#X msg 419 459 open C:/Users/Raul/Desktop/VideoLoops/24.mp4;
#X obj 504 604 outlet;
#X obj 309 3 notein;
#X obj 309 29 stripnote;
#X floatatom 307 54 3 0 0 0 - - -;
#X obj 74 76 == 54;
#X obj 129 76 == 69;
#X obj 178 76 == 81;
#X obj 233 76 == 65;
#X obj 274 76 == 66;
#X obj 329 76 == 76;
#X obj 378 76 == 56;
#X obj 433 76 == 62;
#X obj 518 68 == 63;
#X obj 573 68 == 73;
#X obj 622 68 == 74;
#X obj 677 68 == 71;
#X obj 129 100 t f f;
#X obj 130 123 >;
#X obj 130 146 select 1;
#X obj 73 100 t f f;
#X obj 74 123 >;
#X obj 74 146 select 1;
#X obj 239 100 t f f;
#X obj 240 123 >;
#X obj 240 146 select 1;
#X obj 183 100 t f f;
#X obj 184 123 >;
#X obj 184 146 select 1;
#X obj 339 100 t f f;
#X obj 340 123 >;
#X obj 340 146 select 1;
#X obj 283 100 t f f;
#X obj 284 123 >;
#X obj 284 146 select 1;
#X obj 449 100 t f f;
#X obj 450 123 >;
#X obj 450 146 select 1;
#X obj 393 100 t f f;
#X obj 394 123 >;
#X obj 394 146 select 1;
#X obj 569 100 t f f;
#X obj 570 123 >;
#X obj 570 146 select 1;
#X obj 513 100 t f f;
#X obj 514 123 >;
#X obj 514 146 select 1;
#X obj 679 100 t f f;
#X obj 680 123 >;
#X obj 680 146 select 1;
#X obj 623 100 t f f;
#X obj 624 123 >;
#X obj 624 146 select 1;
#X floatatom 374 30 5 0 0 0 - - -;
#X connect 0 0 24 0;
#X connect 1 0 24 0;
#X connect 2 0 24 0;
#X connect 3 0 24 0;
#X connect 4 0 24 0;
#X connect 5 0 24 0;
#X connect 6 0 24 0;
#X connect 7 0 24 0;
#X connect 8 0 24 0;
#X connect 9 0 24 0;
#X connect 10 0 24 0;
#X connect 11 0 24 0;
#X connect 12 0 24 0;
#X connect 13 0 24 0;
#X connect 14 0 24 0;
#X connect 15 0 24 0;
#X connect 16 0 24 0;
#X connect 17 0 24 0;
#X connect 18 0 24 0;
#X connect 19 0 24 0;
#X connect 20 0 24 0;
#X connect 21 0 24 0;
#X connect 22 0 24 0;
#X connect 23 0 24 0;
#X connect 25 0 26 0;
#X connect 25 1 26 1;
#X connect 26 0 27 0;
#X connect 26 1 76 0;
#X connect 27 0 28 0;
#X connect 27 0 29 0;
#X connect 27 0 30 0;
#X connect 27 0 31 0;
#X connect 27 0 32 0;
#X connect 27 0 33 0;
#X connect 27 0 34 0;
#X connect 27 0 35 0;
#X connect 27 0 36 0;
#X connect 27 0 37 0;
#X connect 27 0 38 0;
#X connect 27 0 39 0;
#X connect 28 0 43 0;
#X connect 29 0 40 0;
#X connect 30 0 49 0;
#X connect 31 0 46 0;
#X connect 32 0 55 0;
#X connect 33 0 52 0;
#X connect 34 0 61 0;
#X connect 35 0 58 0;
#X connect 36 0 67 0;
#X connect 37 0 64 0;
#X connect 38 0 73 0;
#X connect 39 0 70 0;
#X connect 40 0 41 1;
#X connect 40 1 41 0;
#X connect 41 0 42 0;
#X connect 43 0 44 1;
#X connect 43 1 44 0;
#X connect 44 0 45 0;
#X connect 46 0 47 1;
#X connect 46 1 47 0;
#X connect 47 0 48 0;
#X connect 49 0 50 1;
#X connect 49 1 50 0;
#X connect 50 0 51 0;
#X connect 52 0 53 1;
#X connect 52 1 53 0;
#X connect 53 0 54 0;
#X connect 55 0 56 1;
#X connect 55 1 56 0;
#X connect 56 0 57 0;
#X connect 58 0 59 1;
#X connect 58 1 59 0;
#X connect 59 0 60 0;
#X connect 61 0 62 1;
#X connect 61 1 62 0;
#X connect 62 0 63 0;
#X connect 64 0 65 1;
#X connect 64 1 65 0;
#X connect 65 0 66 0;
#X connect 67 0 68 1;
#X connect 67 1 68 0;
#X connect 68 0 69 0;
#X connect 70 0 71 1;
#X connect 70 1 71 0;
#X connect 71 0 72 0;
#X connect 73 0 74 1;
#X connect 73 1 74 0;
#X connect 74 0 75 0;
#X restore 168 65 pd videodir;
#X obj 361 78 loadbang;
#X msg 305 108 open C:/Users/Raul/Desktop/VideoLoops/1.mp4;
#N canvas 154 239 1545 672 notein 1;
#X obj 319 13 notein;
#X obj 319 39 stripnote;
#X floatatom 317 154 3 0 0 0 - - -;
#X obj 84 176 == 54;
#X obj 139 176 == 69;
#X obj 188 176 == 81;
#X obj 243 176 == 65;
#X obj 284 176 == 66;
#X obj 339 176 == 76;
#X obj 388 176 == 56;
#X obj 443 176 == 62;
#X obj 528 168 == 63;
#X obj 583 168 == 73;
#X obj 632 168 == 74;
#X obj 687 168 == 71;
#X obj 139 200 t f f;
#X obj 140 223 >;
#X obj 140 246 select 1;
#X obj 83 200 t f f;
#X obj 84 223 >;
#X obj 84 246 select 1;
#X obj 249 200 t f f;
#X obj 250 223 >;
#X obj 250 246 select 1;
#X obj 193 200 t f f;
#X obj 194 223 >;
#X obj 194 246 select 1;
#X obj 349 200 t f f;
#X obj 350 223 >;
#X obj 350 246 select 1;
#X obj 293 200 t f f;
#X obj 294 223 >;
#X obj 294 246 select 1;
#X obj 459 200 t f f;
#X obj 460 223 >;
#X obj 460 246 select 1;
#X obj 403 200 t f f;
#X obj 404 223 >;
#X obj 404 246 select 1;
#X obj 579 200 t f f;
#X obj 580 223 >;
#X obj 580 246 select 1;
#X obj 523 200 t f f;
#X obj 524 223 >;
#X obj 524 246 select 1;
#X obj 689 200 t f f;
#X obj 690 223 >;
#X obj 690 246 select 1;
#X obj 633 200 t f f;
#X obj 634 223 >;
#X obj 634 246 select 1;
#X floatatom 384 40 5 0 0 0 - - -;
#X msg 91 290 1;
#X msg 150 291 2;
#X msg 199 292 3;
#X msg 261 295 4;
#X msg 305 294 5;
#X obj 394 434 outlet;
#X msg 349 299 6;
#X msg 401 296 7;
#X msg 470 293 8;
#X msg 547 288 9;
#X msg 596 290 10;
#X msg 645 291 11;
#X msg 713 287 12;
#X floatatom 453 25 5 0 0 0 - - -;
#X obj 441 71 == 1;
#X obj 349 119 spigot;
#X floatatom 340 90 5 0 0 0 - - -;
#X text 110 135 BANK B;
#X floatatom 994 149 3 0 0 0 - - -;
#X obj 816 195 t f f;
#X obj 817 218 >;
#X obj 817 241 select 1;
#X obj 760 195 t f f;
#X obj 761 218 >;
#X obj 761 241 select 1;
#X obj 926 195 t f f;
#X obj 927 218 >;
#X obj 927 241 select 1;
#X obj 870 195 t f f;
#X obj 871 218 >;
#X obj 871 241 select 1;
#X obj 1026 195 t f f;
#X obj 1027 218 >;
#X obj 1027 241 select 1;
#X obj 970 195 t f f;
#X obj 971 218 >;
#X obj 971 241 select 1;
#X obj 1136 195 t f f;
#X obj 1137 218 >;
#X obj 1137 241 select 1;
#X obj 1080 195 t f f;
#X obj 1081 218 >;
#X obj 1081 241 select 1;
#X obj 1256 195 t f f;
#X obj 1257 218 >;
#X obj 1257 241 select 1;
#X obj 1200 195 t f f;
#X obj 1201 218 >;
#X obj 1201 241 select 1;
#X obj 1366 195 t f f;
#X obj 1367 218 >;
#X obj 1367 241 select 1;
#X obj 1310 195 t f f;
#X obj 1311 218 >;
#X obj 1311 241 select 1;
#X obj 845 440 outlet;
#X obj 761 171 == 37;
#X obj 816 171 == 36;
#X obj 865 171 == 42;
#X obj 920 171 == 40;
#X obj 961 171 == 38;
#X obj 1016 171 == 46;
#X obj 1065 171 == 48;
#X obj 1120 171 == 47;
#X obj 1205 163 == 45;
#X obj 1260 163 == 49;
#X obj 1309 163 == 55;
#X obj 1364 163 == 51;
#X msg 768 285 13;
#X msg 827 286 14;
#X msg 876 287 15;
#X msg 938 290 16;
#X msg 982 289 17;
#X msg 1026 294 18;
#X msg 1078 291 19;
#X msg 1147 288 20;
#X msg 1224 283 21;
#X msg 1273 285 22;
#X msg 1322 286 23;
#X msg 1390 282 24;
#X text 1132 122 BANK A;
#X connect 0 0 1 0;
#X connect 0 1 1 1;
#X connect 0 2 65 0;
#X connect 1 0 68 0;
#X connect 1 1 51 0;
#X connect 2 0 3 0;
#X connect 2 0 4 0;
#X connect 2 0 5 0;
#X connect 2 0 6 0;
#X connect 2 0 7 0;
#X connect 2 0 8 0;
#X connect 2 0 9 0;
#X connect 2 0 10 0;
#X connect 2 0 11 0;
#X connect 2 0 12 0;
#X connect 2 0 13 0;
#X connect 2 0 14 0;
#X connect 3 0 18 0;
#X connect 4 0 15 0;
#X connect 5 0 24 0;
#X connect 6 0 21 0;
#X connect 7 0 30 0;
#X connect 8 0 27 0;
#X connect 9 0 36 0;
#X connect 10 0 33 0;
#X connect 11 0 42 0;
#X connect 12 0 39 0;
#X connect 13 0 48 0;
#X connect 14 0 45 0;
#X connect 15 0 16 1;
#X connect 15 1 16 0;
#X connect 16 0 17 0;
#X connect 17 0 53 0;
#X connect 18 0 19 1;
#X connect 18 1 19 0;
#X connect 19 0 20 0;
#X connect 20 0 52 0;
#X connect 21 0 22 1;
#X connect 21 1 22 0;
#X connect 22 0 23 0;
#X connect 23 0 55 0;
#X connect 24 0 25 1;
#X connect 24 1 25 0;
#X connect 25 0 26 0;
#X connect 26 0 54 0;
#X connect 27 0 28 1;
#X connect 27 1 28 0;
#X connect 28 0 29 0;
#X connect 29 0 58 0;
#X connect 30 0 31 1;
#X connect 30 1 31 0;
#X connect 31 0 32 0;
#X connect 32 0 56 0;
#X connect 33 0 34 1;
#X connect 33 1 34 0;
#X connect 34 0 35 0;
#X connect 35 0 60 0;
#X connect 36 0 37 1;
#X connect 36 1 37 0;
#X connect 37 0 38 0;
#X connect 38 0 59 0;
#X connect 39 0 40 1;
#X connect 39 1 40 0;
#X connect 40 0 41 0;
#X connect 41 0 62 0;
#X connect 42 0 43 1;
#X connect 42 1 43 0;
#X connect 43 0 44 0;
#X connect 44 0 61 0;
#X connect 45 0 46 1;
#X connect 45 1 46 0;
#X connect 46 0 47 0;
#X connect 47 0 64 0;
#X connect 48 0 49 1;
#X connect 48 1 49 0;
#X connect 49 0 50 0;
#X connect 50 0 63 0;
#X connect 52 0 57 0;
#X connect 53 0 57 0;
#X connect 54 0 57 0;
#X connect 55 0 57 0;
#X connect 56 0 57 0;
#X connect 58 0 57 0;
#X connect 59 0 57 0;
#X connect 60 0 57 0;
#X connect 61 0 57 0;
#X connect 62 0 57 0;
#X connect 63 0 57 0;
#X connect 64 0 57 0;
#X connect 65 0 66 0;
#X connect 66 0 67 1;
#X connect 67 0 2 0;
#X connect 67 0 70 0;
#X connect 68 0 67 0;
#X connect 70 0 108 0;
#X connect 70 0 109 0;
#X connect 70 0 110 0;
#X connect 70 0 111 0;
#X connect 70 0 112 0;
#X connect 70 0 113 0;
#X connect 70 0 114 0;
#X connect 70 0 115 0;
#X connect 70 0 116 0;
#X connect 70 0 117 0;
#X connect 70 0 118 0;
#X connect 70 0 119 0;
#X connect 71 0 72 1;
#X connect 71 1 72 0;
#X connect 72 0 73 0;
#X connect 73 0 121 0;
#X connect 74 0 75 1;
#X connect 74 1 75 0;
#X connect 75 0 76 0;
#X connect 76 0 120 0;
#X connect 77 0 78 1;
#X connect 77 1 78 0;
#X connect 78 0 79 0;
#X connect 79 0 123 0;
#X connect 80 0 81 1;
#X connect 80 1 81 0;
#X connect 81 0 82 0;
#X connect 82 0 122 0;
#X connect 83 0 84 1;
#X connect 83 1 84 0;
#X connect 84 0 85 0;
#X connect 85 0 125 0;
#X connect 86 0 87 1;
#X connect 86 1 87 0;
#X connect 87 0 88 0;
#X connect 88 0 124 0;
#X connect 89 0 90 1;
#X connect 89 1 90 0;
#X connect 90 0 91 0;
#X connect 91 0 127 0;
#X connect 92 0 93 1;
#X connect 92 1 93 0;
#X connect 93 0 94 0;
#X connect 94 0 126 0;
#X connect 95 0 96 1;
#X connect 95 1 96 0;
#X connect 96 0 97 0;
#X connect 97 0 129 0;
#X connect 98 0 99 1;
#X connect 98 1 99 0;
#X connect 99 0 100 0;
#X connect 100 0 128 0;
#X connect 101 0 102 1;
#X connect 101 1 102 0;
#X connect 102 0 103 0;
#X connect 103 0 131 0;
#X connect 104 0 105 1;
#X connect 104 1 105 0;
#X connect 105 0 106 0;
#X connect 106 0 130 0;
#X connect 108 0 74 0;
#X connect 109 0 71 0;
#X connect 110 0 80 0;
#X connect 111 0 77 0;
#X connect 112 0 86 0;
#X connect 113 0 83 0;
#X connect 114 0 92 0;
#X connect 115 0 89 0;
#X connect 116 0 98 0;
#X connect 117 0 95 0;
#X connect 118 0 104 0;
#X connect 119 0 101 0;
#X connect 120 0 107 0;
#X connect 121 0 107 0;
#X connect 122 0 107 0;
#X connect 123 0 107 0;
#X connect 124 0 107 0;
#X connect 125 0 107 0;
#X connect 126 0 107 0;
#X connect 127 0 107 0;
#X connect 128 0 107 0;
#X connect 129 0 107 0;
#X connect 130 0 107 0;
#X connect 131 0 107 0;
#X restore 454 554 pd notein;
#X text 461 61 mp4;
#X obj 431 136 pix_film;
#X obj 512 100 tgl 15 0 empty empty empty 17 7 0 10 -262144 -1 -1 1
1;
#X msg 511 119 auto \$1;
#X msg 500 139 0;
#X obj 512 78 loadbang;
#X msg 456 108 open C:/Users/Raul/Desktop/VideoLoops/2.mp4;
#X text 618 62 mp4;
#X obj 588 137 pix_film;
#X obj 669 101 tgl 15 0 empty empty empty 17 7 0 10 -262144 -1 -1 1
1;
#X msg 668 120 auto \$1;
#X msg 657 140 0;
#X obj 669 79 loadbang;
#X text 769 62 mp4;
#X obj 739 137 pix_film;
#X obj 820 101 tgl 15 0 empty empty empty 17 7 0 10 -262144 -1 -1 1
1;
#X msg 819 120 auto \$1;
#X msg 808 140 0;
#X obj 820 79 loadbang;
#X msg 613 109 open C:/Users/Raul/Desktop/VideoLoops/3.mp4;
#X msg 749 109 open C:/Users/Raul/Desktop/VideoLoops/4.mp4;
#X text 907 61 mp4;
#X obj 877 136 pix_film;
#X obj 958 100 tgl 15 0 empty empty empty 17 7 0 10 -262144 -1 -1 1
1;
#X msg 957 119 auto \$1;
#X msg 946 139 0;
#X obj 958 78 loadbang;
#X text 1056 61 mp4;
#X obj 1028 136 pix_film;
#X obj 1109 100 tgl 15 0 empty empty empty 17 7 0 10 -262144 -1 -1
1 1;
#X msg 1108 119 auto \$1;
#X msg 1097 139 0;
#X obj 1109 78 loadbang;
#X text 1215 62 mp4;
#X obj 1185 137 pix_film;
#X obj 1266 101 tgl 15 0 empty empty empty 17 7 0 10 -262144 -1 -1
1 1;
#X msg 1265 120 auto \$1;
#X msg 1254 140 0;
#X obj 1266 79 loadbang;
#X text 1366 62 mp4;
#X obj 1336 137 pix_film;
#X obj 1417 101 tgl 15 0 empty empty empty 17 7 0 10 -262144 -1 -1
1 1;
#X msg 1416 120 auto \$1;
#X msg 1405 140 0;
#X obj 1417 79 loadbang;
#X msg 895 111 open C:/Users/Raul/Desktop/VideoLoops/5.mp4;
#X msg 1051 110 open C:/Users/Raul/Desktop/VideoLoops/6.mp4;
#X msg 1214 109 open C:/Users/Raul/Desktop/VideoLoops/7.mp4;
#X msg 1346 109 open C:/Users/Raul/Desktop/VideoLoops/8.mp4;
#X text 350 178 mp4;
#X obj 320 253 pix_film;
#X obj 401 217 tgl 15 0 empty empty empty 17 7 0 10 -262144 -1 -1 1
1;
#X msg 400 236 auto \$1;
#X msg 389 256 0;
#X obj 401 195 loadbang;
#X text 501 178 mp4;
#X obj 471 253 pix_film;
#X obj 552 217 tgl 15 0 empty empty empty 17 7 0 10 -262144 -1 -1 1
1;
#X msg 551 236 auto \$1;
#X msg 540 256 0;
#X obj 552 195 loadbang;
#X text 658 179 mp4;
#X obj 628 254 pix_film;
#X obj 709 218 tgl 15 0 empty empty empty 17 7 0 10 -262144 -1 -1 1
1;
#X msg 708 237 auto \$1;
#X msg 697 257 0;
#X obj 709 196 loadbang;
#X text 809 179 mp4;
#X obj 779 254 pix_film;
#X obj 860 218 tgl 15 0 empty empty empty 17 7 0 10 -262144 -1 -1 1
1;
#X msg 862 232 auto \$1;
#X msg 848 257 0;
#X obj 860 196 loadbang;
#X text 947 178 mp4;
#X obj 917 253 pix_film;
#X obj 998 217 tgl 15 0 empty empty empty 17 7 0 10 -262144 -1 -1 1
1;
#X msg 1001 239 auto \$1;
#X msg 986 256 0;
#X obj 998 195 loadbang;
#X text 1098 178 mp4;
#X obj 1068 253 pix_film;
#X obj 1149 217 tgl 15 0 empty empty empty 17 7 0 10 -262144 -1 -1
1 1;
#X msg 1148 236 auto \$1;
#X msg 1137 256 0;
#X obj 1149 195 loadbang;
#X text 1255 179 mp4;
#X obj 1225 254 pix_film;
#X obj 1306 218 tgl 15 0 empty empty empty 17 7 0 10 -262144 -1 -1
1 1;
#X msg 1305 237 auto \$1;
#X msg 1294 257 0;
#X obj 1306 196 loadbang;
#X obj 1376 254 pix_film;
#X obj 1457 218 tgl 15 0 empty empty empty 17 7 0 10 -262144 -1 -1
1 1;
#X msg 1456 237 auto \$1;
#X msg 1445 257 0;
#X obj 1457 196 loadbang;
#X text 390 301 mp4;
#X obj 360 376 pix_film;
#X obj 441 340 tgl 15 0 empty empty empty 17 7 0 10 -262144 -1 -1 1
1;
#X msg 440 359 auto \$1;
#X msg 429 379 0;
#X obj 441 318 loadbang;
#X text 541 301 mp4;
#X obj 511 376 pix_film;
#X obj 592 340 tgl 15 0 empty empty empty 17 7 0 10 -262144 -1 -1 1
1;
#X msg 591 359 auto \$1;
#X msg 580 379 0;
#X obj 592 318 loadbang;
#X text 698 302 mp4;
#X obj 668 377 pix_film;
#X obj 749 341 tgl 15 0 empty empty empty 17 7 0 10 -262144 -1 -1 1
1;
#X msg 748 360 auto \$1;
#X msg 737 380 0;
#X obj 749 319 loadbang;
#X text 849 302 mp4;
#X obj 819 377 pix_film;
#X obj 900 341 tgl 15 0 empty empty empty 17 7 0 10 -262144 -1 -1 1
1;
#X msg 899 360 auto \$1;
#X msg 888 380 0;
#X obj 900 319 loadbang;
#X text 987 301 mp4;
#X obj 957 376 pix_film;
#X obj 1038 340 tgl 15 0 empty empty empty 17 7 0 10 -262144 -1 -1
1 1;
#X msg 1037 359 auto \$1;
#X msg 1026 379 0;
#X obj 1038 318 loadbang;
#X text 1138 301 mp4;
#X obj 1108 376 pix_film;
#X obj 1189 340 tgl 15 0 empty empty empty 17 7 0 10 -262144 -1 -1
1 1;
#X msg 1188 359 auto \$1;
#X msg 1179 382 0;
#X obj 1189 318 loadbang;
#X text 1295 302 mp4;
#X obj 1265 377 pix_film;
#X obj 1346 341 tgl 15 0 empty empty empty 17 7 0 10 -262144 -1 -1
1 1;
#X msg 1345 360 auto \$1;
#X msg 1334 380 0;
#X obj 1346 319 loadbang;
#X text 1446 302 mp4;
#X obj 1416 377 pix_film;
#X obj 1497 341 tgl 15 0 empty empty empty 17 7 0 10 -262144 -1 -1
1 1;
#X msg 1496 360 auto \$1;
#X msg 1485 380 0;
#X obj 1497 319 loadbang;
#X msg 343 225 open C:/Users/Raul/Desktop/VideoLoops/9.mp4;
#X msg 502 229 open C:/Users/Raul/Desktop/VideoLoops/10.mp4;
#X msg 669 226 open C:/Users/Raul/Desktop/VideoLoops/11.mp4;
#X msg 776 226 open C:/Users/Raul/Desktop/VideoLoops/12.mp4;
#X msg 927 231 open C:/Users/Raul/Desktop/VideoLoops/13.mp4;
#X msg 1108 233 open C:/Users/Raul/Desktop/VideoLoops/14.mp4;
#X msg 1280 234 open C:/Users/Raul/Desktop/VideoLoops/15.mp4;
#X msg 1391 226 open C:/Users/Raul/Desktop/VideoLoops/16.mp4;
#X msg 378 351 open C:/Users/Raul/Desktop/VideoLoops/17.mp4;
#X msg 529 353 open C:/Users/Raul/Desktop/VideoLoops/18.mp4;
#X msg 690 351 open C:/Users/Raul/Desktop/VideoLoops/19.mp4;
#X msg 838 353 open C:/Users/Raul/Desktop/VideoLoops/20.mp4;
#X msg 971 357 open C:/Users/Raul/Desktop/VideoLoops/21.mp4;
#X msg 1116 353 open C:/Users/Raul/Desktop/VideoLoops/22.mp4;
#X msg 1280 350 open C:/Users/Raul/Desktop/VideoLoops/23.mp4;
#X msg 1414 351 open C:/Users/Raul/Desktop/VideoLoops/24.mp4;
#X text 1406 179 comment;
#X text 334 559 WELP;
#X obj 149 497 demux 1 2 3 4 5 6 7 8 9 10 11 12 13 14 15 16 17 18 19
20 21 22 23 24;
#X obj 1468 620 pix_curve;
#X obj 1473 651 pix_scanline;
#X obj 1476 745 pix_rgb2hsv;
#X text 161 631 http://www.youtube.com/watch?v=q72IUX6uZRI;
#X text 231 619 watch these;
#N canvas 0 509 450 300 fuck 0;
#X floatatom 117 79 5 0 0 0 - - -;
#X symbolatom 117 138 10 0 0 0 - - -;
#X msg 117 159 set open \$1;
#X msg 117 182 open C:/Users/Raul/Desktop/pd/ProbDrumOct22/basssamp/175.wav
;
#X obj 117 105 makefilename C:/Users/Raul/Desktop/pd/ProbDrumOct22/basssamp/%d.wav
;
#X obj 90 138 t b;
#X obj 117 53 random 252;
#X obj 116 235 soundfiler;
#X msg 116 209 read -resize \$1 bass2;
#X connect 0 0 4 0;
#X connect 1 0 2 0;
#X connect 2 0 3 0;
#X connect 3 0 8 0;
#X connect 4 0 1 0;
#X connect 4 0 5 0;
#X connect 5 0 3 0;
#X connect 6 0 0 0;
#X connect 8 0 7 0;
#X restore 1473 576 pd fuck this;
#X obj 497 610 r demux1;
#X obj 895 724 pix_curve;
#X msg 995 707 set radtrad;
#N canvas 601 485 763 495 output 0;
#X obj 70 54 inlet;
#X obj 70 90 pix_texture;
#X obj 72 128 rectangle 8 5;
#X obj 159 186 pix_write;
#X obj 157 46 bng 15 250 50 0 empty empty empty 17 7 0 10 -262144 -1
-1;
#X obj 203 101 getdir;
#X obj 203 70 bng 15 250 50 0 empty empty empty 17 7 0 10 -262144 -1
-1;
#X symbolatom 206 129 65 0 0 0 - - -;
#X msg 116 236 auto 0;
#X msg 212 234 auto 1;
#X msg 257 164 file C:/Users/Raul/Desktop/Videoloops/yayoo/ JPEG;
#X connect 0 0 1 0;
#X connect 1 0 2 0;
#X connect 2 0 3 0;
#X connect 4 0 3 0;
#X connect 5 0 7 0;
#X connect 6 0 5 0;
#X connect 8 0 3 0;
#X connect 9 0 3 0;
#X connect 10 0 3 0;
#X restore 838 810 pd output;
#N canvas 146 101 915 748 pixcurve 1;
#X obj 200 305 cup;
#X msg 197 280 0;
#X obj 107 376 tabwrite radtrad;
#X obj 106 270 tgl 15 0 empty empty empty 17 7 0 10 -262144 -1 -1 1
1;
#X obj 227 304 del 0;
#X obj 168 253 hsl 128 15 0 500 0 0 empty empty empty -2 -8 0 10 -262144
-1 -1 116 1;
#X obj 166 161 +~ 1;
#X floatatom 119 221 5 0 0 0 - - -;
#X floatatom 166 87 5 0 0 0 - - -;
#X obj 166 109 / 100;
#X obj 165 182 /~ 2;
#X obj 106 398 table radtrad;
#X obj 164 204 unsig~ 7;
#X obj 166 134 osc~ 0.6;
#X msg 166 64 43;
#X obj 166 41 loadbang;
#X obj 263 638 table tradrad;
#X obj 259 616 tabwrite tradrad;
#X obj 531 634 arraycopy;
#X msg 582 590 tradrad;
#X obj 582 611 symbol;
#X msg 494 570 copy TARGET_TABLE;
#X obj 107 288 metro 7;
#X obj 108 33 inlet;
#X obj 295 552 cup;
#X msg 295 527 0;
#X obj 322 551 del 0;
#X obj 267 507 metro 7;
#X obj 267 490 tgl 15 0 empty empty empty 17 7 0 10 -262144 -1 -1 0
1;
#X obj 81 339 +;
#X obj 164 228 * 300;
#X obj 235 98 vsl 15 128 0 600 0 0 empty empty empty 0 -9 0 10 -262144
-1 -1 2400 1;
#X floatatom 256 231 5 0 0 0 - - -;
#X obj 72 613 tabwrite red1;
#X obj 72 573 tabwrite blue1;
#X obj 403 401 tabwrite green1;
#X obj 361 582 s normalize;
#X obj 72 553 r normalize;
#X obj 72 593 r normalize;
#X floatatom 58 401 5 0 0 0 - - -;
#X text 219 79 gain depth;
#X text 68 272 HOLD;
#X obj 259 588 * 2.5;
#X obj 322 527 select 100;
#X text 270 470 reset color map;
#N canvas 1288 492 450 300 tablesaves 0;
#X obj 39 124 table red1;
#X obj 33 174 table blue1;
#X obj 27 68 table green1;
#X obj 114 99 bng 15 250 50 0 empty empty empty 17 7 0 10 -262144 -1
-1;
#X obj 114 151 bng 15 250 50 0 empty empty empty 17 7 0 10 -262144
-1 -1;
#X obj 113 46 bng 15 250 50 0 empty empty empty 17 7 0 10 -262144 -1
-1;
#X msg 113 64 \; green1 write preset1.txt;
#X obj 272 45 bng 15 250 50 0 empty empty empty 17 7 0 10 -262144 -1
-1;
#X msg 272 63 \; green1 read preset1.txt;
#X obj 263 99 bng 15 250 50 0 empty empty empty 17 7 0 10 -262144 -1
-1;
#X obj 268 151 bng 15 250 50 0 empty empty empty 17 7 0 10 -262144
-1 -1;
#X msg 114 116 \; red1 write preset2.txt;
#X msg 263 116 \; red1 read preset2.txt;
#X msg 268 168 \; blue1 read preset3.txt;
#X msg 114 168 \; blue1 write preset3.txt;
#X obj 189 32 loadbang;
#X connect 3 0 11 0;
#X connect 4 0 14 0;
#X connect 5 0 6 0;
#X connect 7 0 8 0;
#X connect 9 0 12 0;
#X connect 10 0 13 0;
#X connect 15 0 7 0;
#X connect 15 0 9 0;
#X connect 15 0 10 0;
#X restore 80 635 pd tablesaves;
#X obj 436 334 r 4tog1;
#X obj 490 351 r xcoord;
#X obj 403 288 r ycoord;
#X obj 490 376 * 100;
#X obj 403 316 * 500;
#X obj 403 372 spigot;
#X obj 436 354 tgl 15 0 empty empty empty 17 7 0 10 -262144 -1 -1 0
1;
#X obj 654 345 r xcoord;
#X obj 567 282 r ycoord;
#X obj 654 370 * 100;
#X obj 567 310 * 500;
#X obj 567 366 spigot;
#X obj 600 348 tgl 15 0 empty empty empty 17 7 0 10 -262144 -1 -1 1
1;
#X obj 567 395 tabwrite blue1;
#X obj 810 341 r xcoord;
#X obj 723 278 r ycoord;
#X obj 810 366 * 100;
#X obj 723 306 * 500;
#X obj 723 362 spigot;
#X obj 756 344 tgl 15 0 empty empty empty 17 7 0 10 -262144 -1 -1 1
1;
#X obj 600 328 r 4tog2;
#X obj 756 324 r 4tog3;
#X obj 724 391 tabwrite red1;
#X obj 227 280 select 100;
#X obj 107 338 random 50;
#X connect 0 0 2 1;
#X connect 0 0 69 0;
#X connect 1 0 0 0;
#X connect 3 0 22 0;
#X connect 4 0 1 0;
#X connect 5 0 29 1;
#X connect 6 0 10 0;
#X connect 8 0 9 0;
#X connect 9 0 13 0;
#X connect 10 0 12 0;
#X connect 12 0 7 0;
#X connect 12 0 30 0;
#X connect 13 0 6 0;
#X connect 14 0 8 0;
#X connect 15 0 14 0;
#X connect 15 0 3 0;
#X connect 19 0 20 0;
#X connect 20 0 18 1;
#X connect 21 0 18 0;
#X connect 22 0 0 0;
#X connect 22 0 70 0;
#X connect 23 0 3 0;
#X connect 24 0 17 1;
#X connect 24 0 36 0;
#X connect 24 0 42 0;
#X connect 24 0 43 0;
#X connect 25 0 24 0;
#X connect 26 0 25 0;
#X connect 27 0 24 0;
#X connect 28 0 27 0;
#X connect 29 0 2 0;
#X connect 29 0 39 0;
#X connect 30 0 5 0;
#X connect 31 0 30 1;
#X connect 31 0 32 0;
#X connect 37 0 34 0;
#X connect 38 0 33 0;
#X connect 42 0 17 0;
#X connect 43 0 26 0;
#X connect 46 0 52 0;
#X connect 47 0 49 0;
#X connect 48 0 50 0;
#X connect 49 0 35 1;
#X connect 50 0 51 0;
#X connect 51 0 35 0;
#X connect 52 0 51 1;
#X connect 53 0 55 0;
#X connect 54 0 56 0;
#X connect 55 0 59 1;
#X connect 56 0 57 0;
#X connect 57 0 59 0;
#X connect 58 0 57 1;
#X connect 60 0 62 0;
#X connect 61 0 63 0;
#X connect 62 0 68 1;
#X connect 63 0 64 0;
#X connect 64 0 68 0;
#X connect 65 0 64 1;
#X connect 66 0 58 0;
#X connect 67 0 65 0;
#X connect 69 0 4 0;
#X connect 70 0 29 0;
#X restore 1427 897 pd pixcurve;
#X msg 995 686 set tradrad;
#N canvas 1047 265 705 403 kaleido 0;
#X floatatom 119 19 5 0 64 1 segments - -;
#X floatatom 134 46 5 0 0 1 sourceAngle - -;
#X floatatom 165 122 5 0 0 1 outputAngle - -;
#X floatatom 211 218 5 0.1 10 1 sap - -;
#X floatatom 195 202 5 0 1 1 rlp - -;
#X obj 180 181 pack;
#X obj 234 181 t b f;
#X floatatom 180 142 4 0 100 0 - - -;
#X floatatom 232 142 4 0 100 0 - - -;
#X obj 180 161 * 0.01;
#X obj 232 161 * 0.01;
#X obj 150 103 pack;
#X obj 204 103 t b f;
#X floatatom 150 64 4 0 100 0 - - -;
#X floatatom 202 64 4 0 100 0 - - -;
#X obj 150 83 * 0.01;
#X obj 202 83 * 0.01;
#X obj 117 251 pix_kaleidoscope;
#X obj 26 80 inlet;
#X obj 45 265 outlet;
#X msg 276 -1 0;
#X obj 308 219 unsig~ 20;
#X obj 338 132 unsig~ 20;
#X obj 338 79 phasor~ 0.1;
#X obj 354 33 knob 32 32 0 0.5 0 0 empty empty empty 0 -8 0 8 -262144
-1 -1 0 1;
#X obj 304 165 phasor~ 0.002;
#X obj 339 107 *~ 90;
#X obj 447 23 r ycoord;
#X obj 532 41 r xcoord;
#X obj 447 48 - 0.5;
#X obj 474 68 r 4tog4;
#X obj 448 108 spigot;
#X obj 474 88 tgl 15 0 empty empty empty 17 7 0 10 -262144 -1 -1 1
1;
#X obj 447 173 r ycoord;
#X obj 447 198 - 0.5;
#X obj 448 258 spigot;
#X obj 474 238 tgl 15 0 empty empty empty 17 7 0 10 -262144 -1 -1 0
1;
#X obj 474 218 r 4tog5;
#X obj 448 234 * 3;
#X obj 305 188 *~ 360;
#X obj 262 266 r 1fad1;
#X floatatom 263 336 5 0 0 0 - - -;
#X obj 263 289 + 1;
#X obj 262 312 pow 6;
#X obj 437 83 * 1.5;
#X text 424 136 rotate;
#X text 411 293 in and out;
#X msg 364 258 0;
#X connect 0 0 17 1;
#X connect 1 0 17 2;
#X connect 2 0 17 4;
#X connect 3 0 17 7;
#X connect 4 0 17 6;
#X connect 5 0 17 5;
#X connect 6 0 5 0;
#X connect 6 1 5 1;
#X connect 7 0 9 0;
#X connect 8 0 10 0;
#X connect 9 0 5 0;
#X connect 10 0 6 0;
#X connect 11 0 17 3;
#X connect 12 0 11 0;
#X connect 12 1 11 1;
#X connect 13 0 15 0;
#X connect 14 0 16 0;
#X connect 15 0 11 0;
#X connect 16 0 12 0;
#X connect 17 0 19 0;
#X connect 18 0 17 0;
#X connect 20 0 0 0;
#X connect 20 0 1 0;
#X connect 20 0 13 0;
#X connect 20 0 14 0;
#X connect 20 0 2 0;
#X connect 20 0 7 0;
#X connect 20 0 8 0;
#X connect 21 0 2 0;
#X connect 22 0 1 0;
#X connect 22 0 14 0;
#X connect 23 0 26 0;
#X connect 24 0 23 0;
#X connect 25 0 39 0;
#X connect 26 0 22 0;
#X connect 27 0 29 0;
#X connect 29 0 44 0;
#X connect 30 0 32 0;
#X connect 31 0 23 0;
#X connect 32 0 31 1;
#X connect 33 0 34 0;
#X connect 34 0 38 0;
#X connect 35 0 25 0;
#X connect 36 0 35 1;
#X connect 37 0 36 0;
#X connect 38 0 35 0;
#X connect 39 0 21 0;
#X connect 40 0 42 0;
#X connect 42 0 43 0;
#X connect 43 0 17 1;
#X connect 43 0 41 0;
#X connect 44 0 31 0;
#X connect 47 0 25 0;
#X connect 47 0 23 0;
#X restore 896 683 pd kaleido;
#X obj 1427 868 tgl 15 0 empty empty empty 17 7 0 10 -262144 -1 -1
0 1;
#X obj 1319 906 alternate;
#N canvas 1165 146 450 300 arraytables 0;
#X msg 39 99 copy tradrad;
#X obj 43 204 table save1;
#X obj 39 129 arraycopy save1;
#X text 50 223 blue red;
#X connect 0 0 2 0;
#X restore 1316 872 pd arraytables;
#X msg 995 667 set red1 green1 blue1;
#N canvas 1117 382 450 300 pixdelay 1;
#X obj 63 217 pix_delay;
#X floatatom 84 182 5 0 0 0 - - -;
#X obj 117 102 unpack 0 0 0;
#X floatatom 117 125 5 0 0 0 - - -;
#X floatatom 151 125 5 0 0 0 - - -;
#X floatatom 186 125 5 0 0 0 - - -;
#X obj 84 151 random;
#X obj 196 154 tgl 15 0 empty empty empty 17 7 0 10 -262144 -1 -1 1
1;
#X obj 132 152 metro 400;
#X obj 63 47 inlet;
#X text 153 46 second pixfilm outlet;
#X obj 117 50 inlet;
#X text 59 29 gemlist;
#X obj 225 151 loadbang;
#X obj 68 256 outlet;
#X floatatom 145 195 5 0 0 0 - - -;
#X connect 0 0 14 0;
#X connect 1 0 0 1;
#X connect 2 0 3 0;
#X connect 2 1 4 0;
#X connect 2 2 5 0;
#X connect 3 0 6 1;
#X connect 6 0 1 0;
#X connect 7 0 8 0;
#X connect 8 0 6 0;
#X connect 9 0 0 0;
#X connect 11 0 2 0;
#X connect 13 0 7 0;
#X connect 15 0 0 1;
#X restore 897 534 pd pixdelay;
#N canvas 1095 232 540 546 pixgain 0;
#X obj 178 292 pack 0 0 0;
#X obj 178 155 vsl 15 100 0 1 0 0 empty empty empty 0 -9 0 10 -258113
-1 -1 0 1;
#X obj 199 155 vsl 15 100 0 1 0 0 empty empty empty 0 -9 0 10 -4034
-1 -1 0 1;
#X obj 220 155 vsl 15 100 0 1 0 0 empty empty empty 0 -9 0 10 -4160
-1 -1 0 1;
#X obj 133 318 pix_gain;
#X obj 178 270 bondo 3;
#X obj 155 154 vsl 15 128 0 1000 0 0 empty empty empty 0 -9 0 10 -262144
-1 -1 13 1;
#X floatatom 193 351 5 0 0 0 - - -;
#X obj 278 81 random 104;
#X obj 278 102 + 141;
#X obj 278 37 tgl 15 0 empty empty empty 17 7 0 10 -262144 -1 -1 0
1;
#X text 301 34 fuckitup;
#X obj 270 203 line;
#X obj 278 173 pack 0 0;
#X floatatom 336 231 5 0 0 0 - - -;
#X obj 278 60 metro 6000;
#X msg 323 126 6000;
#X msg 155 124 1;
#X obj 133 34 inlet;
#X obj 133 478 outlet;
#X obj 278 15 inlet;
#X obj 157 90 inlet;
#X text 159 70 reset;
#X connect 0 0 4 2;
#X connect 1 0 5 0;
#X connect 2 0 5 1;
#X connect 3 0 5 2;
#X connect 4 0 19 0;
#X connect 5 0 0 0;
#X connect 5 1 0 1;
#X connect 5 2 0 2;
#X connect 6 0 4 1;
#X connect 6 0 7 0;
#X connect 8 0 9 0;
#X connect 9 0 13 0;
#X connect 9 0 16 0;
#X connect 10 0 15 0;
#X connect 12 0 4 1;
#X connect 12 0 14 0;
#X connect 13 0 12 0;
#X connect 15 0 8 0;
#X connect 16 0 13 1;
#X connect 17 0 6 0;
#X connect 18 0 4 0;
#X connect 20 0 10 0;
#X connect 21 0 17 0;
#X restore 901 632 pd pixgain;
#X obj 958 609 tgl 15 0 empty empty empty 17 7 0 10 -262144 -1 -1 0
1;
#X text 980 607 fuckitup;
#X obj 929 608 bng 15 250 50 0 empty empty empty 17 7 0 10 -262144
-1 -1;
#X text 921 587 reset;
#N canvas 75 522 450 300 IIR 0;
#X obj 139 170 pix_tIIR 2 1;
#X floatatom 116 129 3 0 1 2 fb0 - -;
#X floatatom 143 129 3 0 1 2 fb1 - -;
#X floatatom 169 129 3 0 1 2 fb2 - -;
#X floatatom 201 130 3 0 1 2 ff0 - -;
#X floatatom 233 129 3 0 1 2 ff1 - -;
#N canvas 0 0 450 300 init 0;
#X msg 175 214 0.3;
#X msg 247 215 0.6;
#X msg 277 215 0.4;
#X obj 104 258 outlet;
#X obj 154 258 outlet;
#X obj 204 258 outlet;
#X obj 254 258 outlet;
#X obj 304 258 outlet;
#X obj 244 59 inlet;
#X obj 338 158 t b;
#X msg 328 201 1;
#X msg 363 201 0;
#X obj 238 127 t b;
#X obj 246 88 route 1;
#X msg 104 214 0.2;
#X msg 140 215 0.5;
#X connect 0 0 5 0;
#X connect 1 0 6 0;
#X connect 2 0 7 0;
#X connect 8 0 13 0;
#X connect 9 0 10 0;
#X connect 9 0 11 0;
#X connect 10 0 3 0;
#X connect 10 0 6 0;
#X connect 11 0 4 0;
#X connect 11 0 5 0;
#X connect 11 0 7 0;
#X connect 12 0 14 0;
#X connect 12 0 15 0;
#X connect 12 0 0 0;
#X connect 12 0 1 0;
#X connect 12 0 2 0;
#X connect 13 0 12 0;
#X connect 13 1 9 0;
#X connect 14 0 3 0;
#X connect 15 0 4 0;
#X restore 262 112 pd init;
#X obj 262 95 tgl 15 0 empty empty empty 0 -6 0 8 -262144 -1 -1 0 1
;
#X msg 129 93 set;
#X msg 169 94 set 0;
#X obj 165 9 inlet;
#X obj 174 242 outlet;
#X obj 273 65 r 2tog2;
#X connect 0 0 11 0;
#X connect 1 0 0 1;
#X connect 2 0 0 2;
#X connect 3 0 0 3;
#X connect 4 0 0 4;
#X connect 5 0 0 5;
#X connect 6 0 1 0;
#X connect 6 1 2 0;
#X connect 6 2 3 0;
#X connect 6 3 4 0;
#X connect 6 4 5 0;
#X connect 7 0 6 0;
#X connect 8 0 0 0;
#X connect 9 0 0 0;
#X connect 10 0 0 0;
#X connect 12 0 7 0;
#X restore 879 784 pd IIR;
#N canvas 997 576 450 300 text3d 0;
#X obj 122 54 cnv 15 150 220 empty empty empty 20 12 0 14 -24198 -66577
0;
#X floatatom 172 229 5 0 100 1 size - -;
#X msg 143 94 font \$1;
#X obj 143 75 openpanel;
#X obj 143 58 bng 15 250 50 0 empty empty empty 0 -6 0 8 -262144 -1
-1;
#X msg 151 120 text hello world!;
#X msg 155 139 1 2 3 4;
#X msg 150 186 justify left base;
#X floatatom 237 14 5 0 0 0 - - -;
#X floatatom 196 9 4 0 0 0 - - -;
#X obj 133 31 rotateXYZ;
#X obj 133 250 text3d;
#X msg 161 161 string 48 49 32 51 52;
#X obj 27 112 inlet;
#X obj 37 257 outlet;
#X connect 1 0 11 1;
#X connect 2 0 11 0;
#X connect 3 0 2 0;
#X connect 4 0 3 0;
#X connect 5 0 11 0;
#X connect 6 0 11 0;
#X connect 7 0 11 0;
#X connect 8 0 10 3;
#X connect 9 0 10 1;
#X connect 10 0 11 0;
#X connect 11 0 14 0;
#X connect 12 0 11 0;
#X connect 13 0 11 0;
#X restore 893 759 pd text3d;
#N canvas 576 110 1071 815 3dmodel 1;
#X floatatom 260 90 0 0 0 0 - - -;
#X floatatom 725 676 0 0 0 0 - - -;
#X obj 685 699 rotate 0 0 1 0;
#X obj 193 137 translate 0 0 0 1;
#X obj 258 111 / 100;
#X obj 581 540 translateXYZ;
#X obj 716 339 r accx;
#X obj 777 369 r accy;
#X obj 858 371 r accz;
#X obj 612 514 / 5;
#X obj 644 514 / 5;
#X obj 675 516 / 5;
#X obj 433 432 rotateXYZ;
#X obj 447 347 vsl 15 70 0 360 0 0 empty empty empty 0 -9 0 10 -262144
-1 -1 5392 1;
#X obj 467 347 vsl 15 70 0 360 0 0 empty empty empty 0 -9 0 10 -262144
-1 -1 5392 1;
#X obj 487 347 vsl 15 70 0 360 0 0 empty empty empty 0 -9 0 10 -262144
-1 -1 5392 1;
#X obj 467 321 * 360;
#X obj 479 265 unsig~ 20;
#X obj 190 89 gemhead 45;
#X obj 724 605 phasor~ 0.2;
#X obj 725 628 unsig~ 20;
#X obj 725 655 * 180;
#X obj 298 318 color;
#X obj 337 295 pack 0 0 0;
#X obj 337 158 vsl 15 100 0 1 0 0 empty empty empty 0 -9 0 10 -258113
-1 -1 3832 1;
#X obj 358 158 vsl 15 100 0 1 0 0 empty empty empty 0 -9 0 10 -4034
-1 -1 2751 1;
#X obj 379 158 vsl 15 100 0 1 0 0 empty empty empty 0 -9 0 10 -4160
-1 -1 7736 1;
#X obj 337 273 bondo 3;
#X obj 338 94 phasor~ 0.5;
#X obj 337 118 unsig~ 20;
#X obj 490 122 unsig~ 20;
#X obj 410 117 unsig~ 20;
#X obj 411 94 phasor~ 0.88;
#X obj 490 95 phasor~ 0.33;
#X floatatom 776 394 5 0 0 0 - - -;
#X floatatom 776 455 5 0 0 0 - - -;
#X obj 776 432 line 0 20;
#X floatatom 856 394 5 0 0 0 - - -;
#X floatatom 856 455 5 0 0 0 - - -;
#X obj 856 432 line 0 20;
#X floatatom 705 387 5 0 0 0 - - -;
#X floatatom 705 448 5 0 0 0 - - -;
#X obj 705 425 line 0 20;
#X obj 705 405 pack f 200;
#X obj 776 412 pack f 200;
#X obj 856 412 pack f 200;
#X obj 905 627 openpanel;
#X obj 905 608 bng 15 250 50 0 empty empty empty 17 7 0 10 -262144
-1 -1;
#X obj 490 777 model skull.obj;
#X obj 479 245 osc~ 0.2;
#X obj 479 305 / 2;
#X obj 479 286 + 1;
#X obj 624 378 r rotary1;
#X obj 588 125 unsig~ 20;
#X obj 588 105 osc~ 0.2;
#X obj 588 165 / 2;
#X obj 588 146 + 1;
#X obj 600 779 model CL20y.obj;
#X obj 351 778 model modelsface.obj;
#X obj 240 776 model buddha.obj;
#X obj 134 778 model barrel.obj;
#X obj 265 711 hradio 15 1 0 8 empty empty empty 0 -8 0 10 -262144
-1 -1 2;
#X obj 170 669 metro 1000;
#X obj 252 689 cup;
#X msg 249 664 0;
#X obj 279 688 del 0;
#X obj 170 645 tgl 15 0 empty empty empty 17 7 0 10 -262144 -1 -1 0
1;
#X obj 279 664 select 5;
#X obj 167 548 r 2push1;
#X msg 170 574 0;
#X msg 230 574 1;
#X msg 286 574 2;
#X msg 353 581 3;
#X obj 227 548 r 2push2;
#X obj 286 548 r 2push3;
#X obj 347 548 r 2push4;
#X obj 396 575 r 2push5;
#X msg 396 601 4;
#X obj 586 667 tgl 15 0 empty empty empty 17 7 0 10 -262144 -1 -1 0
1;
#X obj 619 667 tgl 15 0 empty empty empty 17 7 0 10 -262144 -1 -1 0
1;
#X obj 586 691 switch 1;
#X obj 585 641 r 2tog1;
#X obj 750 771 model Jack_Skellington.obj;
#X obj 463 734 demux 1 2 3 4 5 6;
#X obj 469 576 r 2push6;
#X msg 468 602 5;
#X obj 142 355 gemwin;
#X msg 142 325 lighting \$1;
#X obj 142 302 tgl 15 0 empty empty empty 0 -6 0 8 -262144 -1 -1 1
1;
#X obj 134 266 loadbang;
#X obj 72 205 r 2push7;
#X obj 41 260 t f f;
#X obj 42 283 >;
#X obj 42 306 select 1;
#X obj 55 345 bng 15 250 50 0 empty empty empty 17 7 0 10 -262144 -1
-1;
#X obj 88 421 tgl 15 0 empty empty empty 17 7 0 10 -262144 -1 -1 0
1;
#X obj 137 425;
#X connect 0 0 4 0;
#X connect 1 0 2 1;
#X connect 2 0 80 1;
#X connect 3 0 22 0;
#X connect 4 0 3 1;
#X connect 5 0 2 0;
#X connect 6 0 40 0;
#X connect 7 0 34 0;
#X connect 8 0 37 0;
#X connect 9 0 5 1;
#X connect 10 0 5 2;
#X connect 11 0 5 3;
#X connect 12 0 5 0;
#X connect 13 0 12 1;
#X connect 14 0 12 2;
#X connect 15 0 12 3;
#X connect 16 0 15 0;
#X connect 16 0 14 0;
#X connect 16 0 13 0;
#X connect 17 0 51 0;
#X connect 18 0 3 0;
#X connect 19 0 20 0;
#X connect 20 0 21 0;
#X connect 21 0 1 0;
#X connect 22 0 12 0;
#X connect 23 0 22 1;
#X connect 24 0 27 0;
#X connect 25 0 27 1;
#X connect 26 0 27 2;
#X connect 27 0 23 0;
#X connect 27 1 23 1;
#X connect 27 2 23 2;
#X connect 28 0 29 0;
#X connect 29 0 24 0;
#X connect 31 0 25 0;
#X connect 32 0 31 0;
#X connect 33 0 30 0;
#X connect 34 0 44 0;
#X connect 35 0 10 0;
#X connect 36 0 35 0;
#X connect 37 0 45 0;
#X connect 38 0 11 0;
#X connect 39 0 38 0;
#X connect 40 0 43 0;
#X connect 41 0 9 0;
#X connect 42 0 41 0;
#X connect 43 0 42 0;
#X connect 44 0 36 0;
#X connect 45 0 39 0;
#X connect 47 0 46 0;
#X connect 49 0 17 0;
#X connect 50 0 16 0;
#X connect 51 0 50 0;
#X connect 52 0 43 0;
#X connect 53 0 56 0;
#X connect 54 0 53 0;
#X connect 55 0 26 0;
#X connect 56 0 55 0;
#X connect 61 0 83 1;
#X connect 62 0 63 0;
#X connect 63 0 61 0;
#X connect 63 0 67 0;
#X connect 64 0 63 0;
#X connect 65 0 64 0;
#X connect 66 0 62 0;
#X connect 67 0 65 0;
#X connect 68 0 69 0;
#X connect 69 0 83 1;
#X connect 70 0 83 1;
#X connect 71 0 83 1;
#X connect 72 0 83 1;
#X connect 73 0 70 0;
#X connect 74 0 71 0;
#X connect 75 0 72 0;
#X connect 76 0 77 0;
#X connect 77 0 83 1;
#X connect 78 0 80 0;
#X connect 80 0 83 0;
#X connect 81 0 78 0;
#X connect 83 0 60 0;
#X connect 83 1 59 0;
#X connect 83 2 58 0;
#X connect 83 3 48 0;
#X connect 83 4 57 0;
#X connect 83 5 82 0;
#X connect 84 0 85 0;
#X connect 85 0 83 1;
#X connect 87 0 86 0;
#X connect 88 0 87 0;
#X connect 89 0 88 0;
#X connect 90 0 91 0;
#X connect 90 0 94 0;
#X connect 91 0 92 1;
#X connect 91 1 92 0;
#X connect 92 0 93 0;
#X connect 93 0 88 0;
#X restore 1191 545 pd 3dmodel;
#N canvas 0 164 450 300 gemwinset 1;
#X obj 77 214 gemwin;
#X msg 95 136 destroy;
#X msg 53 105 create \, 1;
#X msg 173 162 dimen 854 480;
#X text 273 128 BUDDHDA LIGHT;
#X msg 182 133 lighting \$1;
#X obj 180 107 tgl 15 0 empty empty empty 0 -6 0 8 -262144 -1 -1 0
1;
#X msg 177 190 offset -1650 0;
#X obj 177 21 loadbang;
#X obj 89 52 del 10;
#X msg 333 61 \; pd dsp 1;
#X obj 291 33 del 50;
#X connect 1 0 0 0;
#X connect 2 0 0 0;
#X connect 3 0 0 0;
#X connect 5 0 0 0;
#X connect 6 0 5 0;
#X connect 7 0 0 0;
#X connect 8 0 3 0;
#X connect 8 0 9 0;
#X connect 8 0 11 0;
#X connect 9 0 2 0;
#X connect 11 0 10 0;
#X restore 1192 522 pd gemwinset;
#X obj 908 558 world_light;
#X obj 527 688 tgl 15 0 empty empty empty 17 7 0 10 -262144 -1 -1 1
1;
#X floatatom 558 816 5 0 0 0 - - -;
#X obj 523 764 mod 25;
#X obj 518 745 cup;
#X obj 523 717 metro 700;
#X connect 0 0 1 0;
#X connect 1 0 173 0;
#X connect 3 0 191 0;
#X connect 3 1 191 1;
#X connect 3 2 6 0;
#X connect 4 0 5 0;
#X connect 5 0 3 0;
#X connect 6 0 3 1;
#X connect 7 0 3 0;
#X connect 8 0 4 0;
#X connect 8 0 9 0;
#X connect 9 0 3 0;
#X connect 10 0 173 1;
#X connect 10 1 173 1;
#X connect 12 0 191 0;
#X connect 12 1 191 1;
#X connect 12 2 15 0;
#X connect 13 0 14 0;
#X connect 14 0 12 0;
#X connect 15 0 12 1;
#X connect 16 0 13 0;
#X connect 16 0 17 0;
#X connect 17 0 12 0;
#X connect 19 0 191 0;
#X connect 19 1 191 1;
#X connect 19 2 22 0;
#X connect 20 0 21 0;
#X connect 21 0 19 0;
#X connect 22 0 19 1;
#X connect 23 0 20 0;
#X connect 23 0 30 0;
#X connect 25 0 191 0;
#X connect 25 1 191 1;
#X connect 25 2 28 0;
#X connect 26 0 27 0;
#X connect 27 0 25 0;
#X connect 28 0 25 1;
#X connect 29 0 26 0;
#X connect 29 0 31 0;
#X connect 30 0 19 0;
#X connect 31 0 25 0;
#X connect 33 0 191 0;
#X connect 33 1 191 1;
#X connect 33 2 36 0;
#X connect 34 0 35 0;
#X connect 35 0 33 0;
#X connect 36 0 33 1;
#X connect 37 0 34 0;
#X connect 37 0 56 0;
#X connect 39 0 191 0;
#X connect 39 1 191 1;
#X connect 39 2 42 0;
#X connect 40 0 41 0;
#X connect 41 0 39 0;
#X connect 42 0 39 1;
#X connect 43 0 40 0;
#X connect 43 0 57 0;
#X connect 45 0 191 0;
#X connect 45 1 191 1;
#X connect 45 2 48 0;
#X connect 46 0 47 0;
#X connect 47 0 45 0;
#X connect 48 0 45 1;
#X connect 49 0 46 0;
#X connect 49 0 58 0;
#X connect 51 0 191 0;
#X connect 51 1 191 1;
#X connect 51 2 54 0;
#X connect 52 0 53 0;
#X connect 53 0 51 0;
#X connect 54 0 51 1;
#X connect 55 0 52 0;
#X connect 55 0 59 0;
#X connect 56 0 33 0;
#X connect 57 0 39 0;
#X connect 58 0 45 0;
#X connect 59 0 51 0;
#X connect 61 0 191 0;
#X connect 61 1 191 1;
#X connect 61 2 64 0;
#X connect 62 0 63 0;
#X connect 63 0 61 0;
#X connect 64 0 61 1;
#X connect 65 0 62 0;
#X connect 65 0 155 0;
#X connect 67 0 191 0;
#X connect 67 1 191 1;
#X connect 67 2 70 0;
#X connect 68 0 69 0;
#X connect 69 0 67 0;
#X connect 70 0 67 1;
#X connect 71 0 68 0;
#X connect 71 0 156 0;
#X connect 73 0 191 0;
#X connect 73 1 191 1;
#X connect 73 2 76 0;
#X connect 74 0 75 0;
#X connect 75 0 73 0;
#X connect 76 0 73 1;
#X connect 77 0 74 0;
#X connect 77 0 157 0;
#X connect 79 0 191 0;
#X connect 79 1 191 1;
#X connect 79 2 82 0;
#X connect 80 0 81 0;
#X connect 81 0 79 0;
#X connect 82 0 79 1;
#X connect 83 0 80 0;
#X connect 83 0 158 0;
#X connect 85 0 191 0;
#X connect 85 1 191 1;
#X connect 85 2 88 0;
#X connect 86 0 87 0;
#X connect 87 0 85 0;
#X connect 88 0 85 1;
#X connect 89 0 86 0;
#X connect 89 0 159 0;
#X connect 91 0 191 0;
#X connect 91 1 191 1;
#X connect 91 2 94 0;
#X connect 92 0 93 0;
#X connect 93 0 91 0;
#X connect 94 0 91 1;
#X connect 95 0 92 0;
#X connect 95 0 160 0;
#X connect 97 0 191 0;
#X connect 97 1 191 1;
#X connect 97 2 100 0;
#X connect 98 0 99 0;
#X connect 99 0 97 0;
#X connect 100 0 97 1;
#X connect 101 0 98 0;
#X connect 101 0 161 0;
#X connect 102 0 191 0;
#X connect 102 1 191 1;
#X connect 102 2 105 0;
#X connect 103 0 104 0;
#X connect 104 0 102 0;
#X connect 105 0 102 1;
#X connect 106 0 103 0;
#X connect 106 0 162 0;
#X connect 108 0 191 0;
#X connect 108 1 191 1;
#X connect 108 2 111 0;
#X connect 109 0 110 0;
#X connect 110 0 108 0;
#X connect 111 0 108 1;
#X connect 112 0 109 0;
#X connect 112 0 163 0;
#X connect 114 0 191 0;
#X connect 114 1 191 1;
#X connect 114 2 117 0;
#X connect 115 0 116 0;
#X connect 116 0 114 0;
#X connect 117 0 114 1;
#X connect 118 0 115 0;
#X connect 118 0 164 0;
#X connect 120 0 191 0;
#X connect 120 1 191 1;
#X connect 120 2 123 0;
#X connect 121 0 122 0;
#X connect 122 0 120 0;
#X connect 123 0 120 1;
#X connect 124 0 121 0;
#X connect 124 0 165 0;
#X connect 126 0 191 0;
#X connect 126 1 191 1;
#X connect 126 2 129 0;
#X connect 127 0 128 0;
#X connect 128 0 126 0;
#X connect 129 0 126 1;
#X connect 130 0 127 0;
#X connect 130 0 166 0;
#X connect 132 0 191 0;
#X connect 132 1 191 1;
#X connect 132 2 135 0;
#X connect 133 0 134 0;
#X connect 134 0 132 0;
#X connect 135 0 132 1;
#X connect 136 0 133 0;
#X connect 136 0 167 0;
#X connect 138 0 191 0;
#X connect 138 1 191 1;
#X connect 138 2 141 0;
#X connect 139 0 140 0;
#X connect 140 0 138 0;
#X connect 141 0 138 1;
#X connect 142 0 139 0;
#X connect 142 0 168 0;
#X connect 144 0 191 0;
#X connect 144 1 191 1;
#X connect 144 2 147 0;
#X connect 145 0 146 0;
#X connect 146 0 144 0;
#X connect 147 0 144 1;
#X connect 148 0 145 0;
#X connect 148 0 169 0;
#X connect 150 0 191 0;
#X connect 150 1 191 1;
#X connect 150 2 153 0;
#X connect 151 0 152 0;
#X connect 152 0 150 0;
#X connect 153 0 150 1;
#X connect 154 0 151 0;
#X connect 154 0 170 0;
#X connect 155 0 61 0;
#X connect 156 0 67 0;
#X connect 157 0 73 0;
#X connect 158 0 79 0;
#X connect 159 0 85 0;
#X connect 160 0 91 0;
#X connect 161 0 97 0;
#X connect 162 0 102 0;
#X connect 163 0 108 0;
#X connect 164 0 114 0;
#X connect 165 0 120 0;
#X connect 166 0 126 0;
#X connect 167 0 132 0;
#X connect 168 0 138 0;
#X connect 169 0 144 0;
#X connect 170 0 150 0;
#X connect 173 0 3 0;
#X connect 173 1 12 0;
#X connect 173 2 19 0;
#X connect 173 3 25 0;
#X connect 173 4 33 0;
#X connect 173 5 39 0;
#X connect 173 6 45 0;
#X connect 173 7 51 0;
#X connect 173 8 61 0;
#X connect 173 9 67 0;
#X connect 173 10 73 0;
#X connect 173 11 79 0;
#X connect 173 12 85 0;
#X connect 173 13 91 0;
#X connect 173 14 97 0;
#X connect 173 15 102 0;
#X connect 173 16 108 0;
#X connect 173 17 114 0;
#X connect 173 18 120 0;
#X connect 173 19 126 0;
#X connect 173 20 132 0;
#X connect 173 21 138 0;
#X connect 173 22 144 0;
#X connect 173 23 150 0;
#X connect 180 0 173 1;
#X connect 181 0 198 0;
#X connect 182 0 181 0;
#X connect 185 0 181 0;
#X connect 186 0 181 0;
#X connect 187 0 184 0;
#X connect 190 0 181 0;
#X connect 191 0 192 0;
#X connect 191 0 201 0;
#X connect 192 0 186 0;
#X connect 193 0 192 2;
#X connect 195 0 192 1;
#X connect 197 0 183 0;
#X connect 198 0 197 0;
#X connect 202 0 206 0;
#X connect 203 0 173 1;
#X connect 204 0 203 0;
#X connect 205 0 204 0;
#X connect 206 0 205 0;
